<svg width="24" height="24" viewBox="0 0 24 24" fill="none" xmlns="http://www.w3.org/2000/svg">
<rect width="24" height="24" rx="4" fill="#8D98FF" fill-opacity="0.15"/>
<path d="M9.62998 11.13C10.8809 11.13 11.895 10.1159 11.895 8.865C11.895 7.61408 10.8809 6.60001 9.62998 6.60001C8.37906 6.60001 7.36499 7.61408 7.36499 8.865C7.36499 10.1159 8.37906 11.13 9.62998 11.13Z" stroke="#5E6EFF" stroke-width="1.2" stroke-linecap="round" stroke-linejoin="round"/>
<path d="M5.0625 17.4V16.11C5.0625 14.61 6.2775 13.395 7.7775 13.395H11.8425C13.3425 13.395 14.5575 14.61 14.5575 16.11V17.4" stroke="#5E6EFF" stroke-width="1.2" stroke-linecap="round" stroke-linejoin="round"/>
<path d="M15.285 11.775C16.2128 11.775 16.965 11.0228 16.965 10.095C16.965 9.16716 16.2128 8.415 15.285 8.415C14.3571 8.415 13.605 9.16716 13.605 10.095C13.605 11.0228 14.3571 11.775 15.285 11.775Z" stroke="#5E6EFF" stroke-width="1.2" stroke-linecap="round" stroke-linejoin="round"/>
<path d="M15.765 13.455H16.92C18.03 13.455 18.93 14.355 18.93 15.465V16.425" stroke="#5E6EFF" stroke-width="1.2" stroke-linecap="round" stroke-linejoin="round"/>
</svg>
