<svg width="24" height="24" viewBox="0 0 24 24" fill="none" xmlns="http://www.w3.org/2000/svg">
<rect width="24" height="24" rx="4" fill="#8D98FF" fill-opacity="0.15"/>
<path d="M9.36663 11.0333C10.7565 11.0333 11.8833 9.90658 11.8833 8.51666C11.8833 7.12675 10.7565 6 9.36663 6C7.97672 6 6.84998 7.12675 6.84998 8.51666C6.84998 9.90658 7.97672 11.0333 9.36663 11.0333Z" stroke="#5E6EFF" stroke-linecap="round" stroke-linejoin="round"/>
<path d="M4.29169 18V16.5667C4.29169 14.9 5.64168 13.55 7.30835 13.55H11.825C13.4917 13.55 14.8417 14.9 14.8417 16.5667V18" stroke="#5E6EFF" stroke-linecap="round" stroke-linejoin="round"/>
<path d="M15.65 11.75C16.6809 11.75 17.5167 10.9143 17.5167 9.88334C17.5167 8.8524 16.6809 8.01667 15.65 8.01667C14.6191 8.01667 13.7833 8.8524 13.7833 9.88334C13.7833 10.9143 14.6191 11.75 15.65 11.75Z" stroke="#5E6EFF" stroke-linecap="round" stroke-linejoin="round"/>
<path d="M16.1833 13.6167H17.4667C18.7 13.6167 19.7 14.6167 19.7 15.85V16.9167" stroke="#5E6EFF" stroke-linecap="round" stroke-linejoin="round"/>
</svg>
