<svg width="24" height="24" viewBox="0 0 24 24" fill="none" xmlns="http://www.w3.org/2000/svg">
<rect width="24" height="24" rx="4" fill="#8D98FF" fill-opacity="0.15"/>
<path fill-rule="evenodd" clip-rule="evenodd" d="M9.98422 7.68825C10.904 6.7685 12.1995 6.19998 13.648 6.19998C16.5156 6.19998 18.8 8.45014 18.8 11.2C18.8 11.9293 18.6303 12.621 18.3418 13.2557C18.2792 13.3935 18.2716 13.5479 18.317 13.6884L18.6542 15.9231L16.3415 15.5901C16.2205 15.5727 16.097 15.5927 15.9877 15.6474C15.4855 15.8984 14.9408 16.0705 14.3592 16.1495L14.3592 16.1494L14.3474 16.1512C14.1297 16.1852 13.8899 16.2 13.64 16.2C10.7724 16.2 8.48796 13.9499 8.48796 11.2C8.48796 9.82673 9.04807 8.60286 9.97924 7.69318L9.97927 7.69321L9.98422 7.68825ZM20 11.2C20 12.0479 19.8175 12.846 19.513 13.5719L19.9613 16.5425C19.9896 16.7302 19.9275 16.9202 19.7937 17.0548C19.66 17.1895 19.4704 17.2529 19.2825 17.2259L16.3514 16.8039C15.7836 17.0671 15.1728 17.2494 14.5266 17.3378C14.2341 17.3831 13.932 17.4 13.64 17.4C10.1396 17.4 7.28795 14.6422 7.28795 11.2C7.28795 9.4865 7.99082 7.95934 9.13817 6.83724C10.2823 5.69447 11.8817 4.99998 13.648 4.99998C17.1484 4.99998 20 7.75784 20 11.2ZM6.62881 8.48434C6.86499 8.71677 6.86803 9.09666 6.6356 9.33285C5.74692 10.2359 5.19995 11.4553 5.19995 12.8C5.19995 13.5293 5.36965 14.221 5.65818 14.8557C5.7208 14.9935 5.72831 15.1479 5.68293 15.2884L5.34572 17.5231L7.65846 17.1901C7.77866 17.1728 7.90128 17.1924 8.01011 17.2463C8.72346 17.5993 9.52075 17.8 10.36 17.8C10.5353 17.8 10.7107 17.7927 10.8861 17.7781C11.2164 17.7506 11.5064 17.996 11.5339 18.3262C11.5614 18.6564 11.316 18.9464 10.9858 18.974C10.7773 18.9913 10.5687 19 10.36 19C9.3946 19 8.47647 18.7839 7.64967 18.4038L4.71744 18.8259C4.52958 18.8529 4.34 18.7895 4.20624 18.6548C4.07249 18.5202 4.01034 18.3302 4.03866 18.1425L4.48692 15.1719C4.18248 14.446 3.99995 13.6479 3.99995 12.8C3.99995 11.1207 4.68498 9.60412 5.78031 8.49113C6.01274 8.25495 6.39263 8.25191 6.62881 8.48434ZM11.088 11.824C11.4415 11.824 11.728 11.5446 11.728 11.2C11.728 10.8554 11.4415 10.576 11.088 10.576C10.7345 10.576 10.448 10.8554 10.448 11.2C10.448 11.5446 10.7345 11.824 11.088 11.824ZM14.2881 11.2C14.2881 11.5446 14.0015 11.824 13.648 11.824C13.2946 11.824 13.008 11.5446 13.008 11.2C13.008 10.8554 13.2946 10.576 13.648 10.576C14.0015 10.576 14.2881 10.8554 14.2881 11.2ZM16.2 10.624C15.9196 10.624 15.64 10.8534 15.64 11.2C15.64 11.5466 15.9196 11.776 16.2 11.776C16.4805 11.776 16.76 11.5466 16.76 11.2C16.76 10.8534 16.4805 10.624 16.2 10.624ZM16.84 11.2C16.84 11.5446 16.5535 11.824 16.2 11.824C15.8466 11.824 15.56 11.5446 15.56 11.2C15.56 10.8554 15.8466 10.576 16.2 10.576C16.5535 10.576 16.84 10.8554 16.84 11.2Z" fill="#5E6EFF"/>
<path d="M9.98422 7.68825L9.91351 7.61754L9.91351 7.61754L9.98422 7.68825ZM18.3418 13.2557L18.4328 13.2971L18.4328 13.2971L18.3418 13.2557ZM18.317 13.6884L18.4159 13.6735C18.4151 13.6681 18.4139 13.6628 18.4122 13.6577L18.317 13.6884ZM18.6542 15.9231L18.64 16.0221C18.6713 16.0266 18.7029 16.016 18.7252 15.9936C18.7475 15.9711 18.7578 15.9394 18.7531 15.9082L18.6542 15.9231ZM16.3415 15.5901L16.3272 15.6891L16.3272 15.6891L16.3415 15.5901ZM14.3592 16.1495L14.2603 16.1637C14.2681 16.2181 14.3183 16.256 14.3727 16.2486L14.3592 16.1495ZM14.3592 16.1494L14.4582 16.1351C14.4544 16.1086 14.4401 16.0848 14.4187 16.0689C14.3972 16.053 14.3702 16.0464 14.3438 16.0506L14.3592 16.1494ZM14.3474 16.1512L14.3628 16.25L14.3628 16.25L14.3474 16.1512ZM9.97924 7.69318L10.0508 7.62334C10.0323 7.60435 10.007 7.5935 9.98044 7.59318C9.95391 7.59286 9.92834 7.6031 9.90936 7.62165L9.97924 7.69318ZM9.97927 7.69321L9.90769 7.76304C9.92636 7.78218 9.95192 7.79304 9.97865 7.7932C10.0054 7.79337 10.0311 7.78282 10.05 7.76391L9.97927 7.69321ZM19.513 13.5719L19.4208 13.5332C19.4137 13.5501 19.4114 13.5687 19.4142 13.5868L19.513 13.5719ZM19.9613 16.5425L20.0602 16.5276L20.0602 16.5276L19.9613 16.5425ZM19.7937 17.0548L19.7228 16.9844L19.7228 16.9844L19.7937 17.0548ZM19.2825 17.2259L19.2683 17.3249L19.2683 17.3249L19.2825 17.2259ZM16.3514 16.8039L16.3657 16.705C16.3465 16.7022 16.3269 16.7051 16.3094 16.7132L16.3514 16.8039ZM14.5266 17.3378L14.513 17.2387L14.5113 17.239L14.5266 17.3378ZM9.13817 6.83724L9.20809 6.90874L9.20884 6.90799L9.13817 6.83724ZM6.6356 9.33285L6.56433 9.2627L6.56433 9.2627L6.6356 9.33285ZM5.65818 14.8557L5.56714 14.8971L5.56714 14.8971L5.65818 14.8557ZM5.68293 15.2884L5.58776 15.2577C5.5861 15.2628 5.58486 15.2681 5.58405 15.2735L5.68293 15.2884ZM5.34572 17.5231L5.24684 17.5082C5.24212 17.5394 5.25248 17.5711 5.27477 17.5936C5.29706 17.616 5.32866 17.6266 5.35997 17.6221L5.34572 17.5231ZM7.65846 17.1901L7.67271 17.2891L7.67271 17.2891L7.65846 17.1901ZM8.01011 17.2463L7.96575 17.3359L7.96575 17.3359L8.01011 17.2463ZM10.8861 17.7781L10.8778 17.6784L10.8778 17.6784L10.8861 17.7781ZM11.5339 18.3262L11.4343 18.3345L11.4343 18.3345L11.5339 18.3262ZM10.9858 18.974L10.9775 18.8743L10.9775 18.8743L10.9858 18.974ZM7.64967 18.4038L7.69144 18.3129C7.67394 18.3049 7.65448 18.3021 7.63542 18.3048L7.64967 18.4038ZM4.71744 18.8259L4.70319 18.7269L4.70319 18.7269L4.71744 18.8259ZM4.20624 18.6548L4.13529 18.7253L4.13529 18.7253L4.20624 18.6548ZM4.03866 18.1425L4.13754 18.1574L4.13754 18.1574L4.03866 18.1425ZM4.48692 15.1719L4.5858 15.1868C4.58854 15.1687 4.58623 15.1501 4.57914 15.1332L4.48692 15.1719ZM5.78031 8.49113L5.85158 8.56127L5.85158 8.56127L5.78031 8.49113ZM13.648 6.09998C12.1729 6.09998 10.852 6.67908 9.91351 7.61754L10.0549 7.75896C10.956 6.85792 12.2261 6.29998 13.648 6.29998V6.09998ZM18.9 11.2C18.9 8.39254 16.5684 6.09998 13.648 6.09998V6.29998C16.4628 6.29998 18.7 8.50775 18.7 11.2H18.9ZM18.4328 13.2971C18.7266 12.6508 18.9 11.9451 18.9 11.2H18.7C18.7 11.9135 18.534 12.5911 18.2507 13.2143L18.4328 13.2971ZM18.4122 13.6577C18.3744 13.5405 18.3806 13.4119 18.4328 13.2971L18.2507 13.2143C18.1777 13.3751 18.1689 13.5552 18.2219 13.7191L18.4122 13.6577ZM18.7531 15.9082L18.4159 13.6735L18.2181 13.7033L18.5553 15.938L18.7531 15.9082ZM16.3272 15.6891L18.64 16.0221L18.6685 15.8241L16.3557 15.4912L16.3272 15.6891ZM16.0324 15.7368C16.1235 15.6912 16.2264 15.6746 16.3272 15.6891L16.3557 15.4912C16.2145 15.4708 16.0705 15.4941 15.9429 15.5579L16.0324 15.7368ZM14.3727 16.2486C14.9653 16.1681 15.5206 15.9927 16.0324 15.7368L15.9429 15.5579C15.4504 15.8042 14.9162 15.9729 14.3458 16.0504L14.3727 16.2486ZM14.2602 16.1636L14.2603 16.1637L14.4582 16.1352L14.4582 16.1351L14.2602 16.1636ZM14.3628 16.25L14.3747 16.2482L14.3438 16.0506L14.3319 16.0524L14.3628 16.25ZM13.64 16.3C13.8936 16.3 14.1388 16.285 14.3628 16.25L14.3319 16.0524C14.1207 16.0854 13.8862 16.1 13.64 16.1V16.3ZM8.38796 11.2C8.38796 14.0075 10.7195 16.3 13.64 16.3V16.1C10.8252 16.1 8.58796 13.8923 8.58796 11.2H8.38796ZM9.90936 7.62165C8.96004 8.54906 8.38796 9.79829 8.38796 11.2H8.58796C8.58796 9.85518 9.1361 8.65666 10.0491 7.76471L9.90936 7.62165ZM10.0508 7.62337L10.0508 7.62334L9.90766 7.76301L9.90769 7.76304L10.0508 7.62337ZM9.91351 7.61754L9.90856 7.6225L10.05 7.76391L10.0549 7.75896L9.91351 7.61754ZM19.6053 13.6106C19.9143 12.8737 20.1 12.0625 20.1 11.2H19.9C19.9 12.0334 19.7206 12.8184 19.4208 13.5332L19.6053 13.6106ZM20.0602 16.5276L19.6119 13.557L19.4142 13.5868L19.8624 16.5574L20.0602 16.5276ZM19.8647 17.1253C20.0207 16.9682 20.0932 16.7465 20.0602 16.5276L19.8624 16.5574C19.886 16.7138 19.8342 16.8722 19.7228 16.9844L19.8647 17.1253ZM19.2683 17.3249C19.4874 17.3564 19.7086 17.2824 19.8647 17.1253L19.7228 16.9844C19.6113 17.0966 19.4533 17.1495 19.2968 17.1269L19.2683 17.3249ZM16.3372 16.9029L19.2683 17.3249L19.2968 17.1269L16.3657 16.705L16.3372 16.9029ZM14.5401 17.4369C15.1963 17.3471 15.8167 17.1619 16.3935 16.8947L16.3094 16.7132C15.7504 16.9722 15.1492 17.1517 14.513 17.2387L14.5401 17.4369ZM13.64 17.5C13.9357 17.5 14.2431 17.4829 14.5419 17.4366L14.5113 17.239C14.2251 17.2833 13.9284 17.3 13.64 17.3V17.5ZM7.18795 11.2C7.18795 14.6999 10.0869 17.5 13.64 17.5V17.3C10.1922 17.3 7.38795 14.5844 7.38795 11.2H7.18795ZM9.06825 6.76575C7.90279 7.90556 7.18795 9.45806 7.18795 11.2H7.38795C7.38795 9.51495 8.07885 8.01312 9.20809 6.90874L9.06825 6.76575ZM13.648 4.89998C11.8552 4.89998 10.2303 5.60503 9.0675 6.76649L9.20884 6.90799C10.3342 5.7839 11.9083 5.09998 13.648 5.09998V4.89998ZM20.1 11.2C20.1 7.70008 17.201 4.89998 13.648 4.89998V5.09998C17.0957 5.09998 19.9 7.8156 19.9 11.2H20.1ZM6.70687 9.40299C6.97805 9.12744 6.9745 8.68424 6.69895 8.41307L6.55867 8.55562C6.75549 8.74931 6.75802 9.06588 6.56433 9.2627L6.70687 9.40299ZM5.29995 12.8C5.29995 11.4832 5.83542 10.2885 6.70687 9.40299L6.56433 9.2627C5.65842 10.1832 5.09995 11.4275 5.09995 12.8H5.29995ZM5.74921 14.8143C5.46594 14.1911 5.29995 13.5135 5.29995 12.8H5.09995C5.09995 13.5451 5.27337 14.2508 5.56714 14.8971L5.74921 14.8143ZM5.77809 15.3191C5.83103 15.1552 5.82228 14.9751 5.74921 14.8143L5.56714 14.8971C5.61932 15.0119 5.62559 15.1405 5.58776 15.2577L5.77809 15.3191ZM5.4446 17.538L5.78181 15.3033L5.58405 15.2735L5.24684 17.5082L5.4446 17.538ZM7.64421 17.0912L5.33147 17.4241L5.35997 17.6221L7.67271 17.2891L7.64421 17.0912ZM8.05447 17.1567C7.9275 17.0938 7.78444 17.071 7.64421 17.0912L7.67271 17.2891C7.77288 17.2747 7.87506 17.291 7.96575 17.3359L8.05447 17.1567ZM10.36 17.7C9.53688 17.7 8.7547 17.5032 8.05447 17.1567L7.96575 17.3359C8.69221 17.6955 9.50462 17.9 10.36 17.9V17.7ZM10.8778 17.6784C10.7051 17.6928 10.5325 17.7 10.36 17.7V17.9C10.5381 17.9 10.7162 17.8926 10.8945 17.8777L10.8778 17.6784ZM11.6336 18.3179C11.6015 17.9326 11.2631 17.6463 10.8778 17.6784L10.8945 17.8777C11.1696 17.8548 11.4113 18.0593 11.4343 18.3345L11.6336 18.3179ZM10.9941 19.0736C11.3794 19.0415 11.6657 18.7032 11.6336 18.3179L11.4343 18.3345C11.4572 18.6097 11.2527 18.8514 10.9775 18.8743L10.9941 19.0736ZM10.36 19.1C10.5714 19.1 10.7828 19.0912 10.9941 19.0736L10.9775 18.8743C10.7717 18.8914 10.5659 18.9 10.36 18.9V19.1ZM7.60789 18.4946C8.4472 18.8805 9.37954 19.1 10.36 19.1V18.9C9.40967 18.9 8.50574 18.6873 7.69144 18.3129L7.60789 18.4946ZM4.73169 18.9249L7.66391 18.5028L7.63542 18.3048L4.70319 18.7269L4.73169 18.9249ZM4.13529 18.7253C4.29134 18.8824 4.51252 18.9564 4.73169 18.9249L4.70319 18.7269C4.54664 18.7495 4.38865 18.6966 4.27719 18.5844L4.13529 18.7253ZM3.93978 18.1276C3.90674 18.3465 3.97925 18.5682 4.13529 18.7253L4.27719 18.5844C4.16573 18.4722 4.11394 18.3138 4.13754 18.1574L3.93978 18.1276ZM4.38804 15.157L3.93978 18.1276L4.13754 18.1574L4.5858 15.1868L4.38804 15.157ZM3.89995 12.8C3.89995 13.6625 4.08564 14.4737 4.3947 15.2106L4.57914 15.1332C4.27932 14.4184 4.09995 13.6334 4.09995 12.8H3.89995ZM5.70903 8.42099C4.59649 9.55147 3.89995 11.0928 3.89995 12.8H4.09995C4.09995 11.1486 4.77347 9.65678 5.85158 8.56127L5.70903 8.42099ZM6.69895 8.41307C6.42341 8.14189 5.98021 8.14544 5.70903 8.42099L5.85158 8.56127C6.04528 8.36445 6.36185 8.36192 6.55867 8.55562L6.69895 8.41307ZM11.628 11.2C11.628 11.487 11.3886 11.724 11.088 11.724V11.924C11.4943 11.924 11.828 11.6022 11.828 11.2H11.628ZM11.088 10.676C11.3886 10.676 11.628 10.913 11.628 11.2H11.828C11.828 10.7978 11.4943 10.476 11.088 10.476V10.676ZM10.548 11.2C10.548 10.913 10.7874 10.676 11.088 10.676V10.476C10.6817 10.476 10.348 10.7978 10.348 11.2H10.548ZM11.088 11.724C10.7874 11.724 10.548 11.487 10.548 11.2H10.348C10.348 11.6022 10.6817 11.924 11.088 11.924V11.724ZM13.648 11.924C14.0543 11.924 14.3881 11.6022 14.3881 11.2H14.1881C14.1881 11.487 13.9487 11.724 13.648 11.724V11.924ZM12.908 11.2C12.908 11.6022 13.2418 11.924 13.648 11.924V11.724C13.3474 11.724 13.108 11.487 13.108 11.2H12.908ZM13.648 10.476C13.2418 10.476 12.908 10.7978 12.908 11.2H13.108C13.108 10.913 13.3474 10.676 13.648 10.676V10.476ZM14.3881 11.2C14.3881 10.7978 14.0543 10.476 13.648 10.476V10.676C13.9487 10.676 14.1881 10.913 14.1881 11.2H14.3881ZM15.74 11.2C15.74 10.9125 15.9709 10.724 16.2 10.724V10.524C15.8683 10.524 15.54 10.7943 15.54 11.2H15.74ZM16.2 11.676C15.9709 11.676 15.74 11.4875 15.74 11.2H15.54C15.54 11.6057 15.8683 11.876 16.2 11.876V11.676ZM16.66 11.2C16.66 11.4875 16.4292 11.676 16.2 11.676V11.876C16.5318 11.876 16.86 11.6057 16.86 11.2H16.66ZM16.2 10.724C16.4292 10.724 16.66 10.9125 16.66 11.2H16.86C16.86 10.7943 16.5318 10.524 16.2 10.524V10.724ZM16.2 11.924C16.6063 11.924 16.94 11.6022 16.94 11.2H16.74C16.74 11.487 16.5007 11.724 16.2 11.724V11.924ZM15.46 11.2C15.46 11.6022 15.7937 11.924 16.2 11.924V11.724C15.8994 11.724 15.66 11.487 15.66 11.2H15.46ZM16.2 10.476C15.7937 10.476 15.46 10.7978 15.46 11.2H15.66C15.66 10.913 15.8994 10.676 16.2 10.676V10.476ZM16.94 11.2C16.94 10.7978 16.6063 10.476 16.2 10.476V10.676C16.5007 10.676 16.74 10.913 16.74 11.2H16.94Z" fill="#5E6EFF"/>
<path fill-rule="evenodd" clip-rule="evenodd" d="M11.088 10.624C10.8076 10.624 10.528 10.8534 10.528 11.2C10.528 11.5466 10.8076 11.776 11.088 11.776C11.3685 11.776 11.648 11.5466 11.648 11.2C11.648 10.8534 11.3685 10.624 11.088 10.624ZM11.728 11.2C11.728 11.5446 11.4415 11.824 11.088 11.824C10.7345 11.824 10.448 11.5446 10.448 11.2C10.448 10.8554 10.7345 10.576 11.088 10.576C11.4415 10.576 11.728 10.8554 11.728 11.2Z" fill="#5E6EFF" stroke="#5E6EFF" stroke-width="0.7"/>
<path fill-rule="evenodd" clip-rule="evenodd" d="M13.6481 10.624C13.3676 10.624 13.0881 10.8534 13.0881 11.2C13.0881 11.5466 13.3676 11.776 13.6481 11.776C13.9285 11.776 14.2081 11.5466 14.2081 11.2C14.2081 10.8534 13.9285 10.624 13.6481 10.624ZM14.2881 11.2C14.2881 11.5446 14.0015 11.824 13.6481 11.824C13.2946 11.824 13.0081 11.5446 13.0081 11.2C13.0081 10.8554 13.2946 10.576 13.6481 10.576C14.0015 10.576 14.2881 10.8554 14.2881 11.2Z" fill="#5E6EFF" stroke="#5E6EFF" stroke-width="0.7"/>
<path d="M16.2001 11.824C16.5535 11.824 16.8401 11.5446 16.8401 11.2C16.8401 10.8554 16.5535 10.576 16.2001 10.576C15.8466 10.576 15.5601 10.8554 15.5601 11.2C15.5601 11.5446 15.8466 11.824 16.2001 11.824Z" fill="#5E6EFF" stroke="#5E6EFF" stroke-width="0.7"/>
</svg>
