<svg width="24" height="24" viewBox="0 0 24 24" fill="none" xmlns="http://www.w3.org/2000/svg">
<rect width="24" height="24" rx="4" fill="#8D98FF" fill-opacity="0.15"/>
<path fill-rule="evenodd" clip-rule="evenodd" d="M10.3202 8.40689C11.0866 7.64043 12.1662 7.16667 13.3733 7.16667C15.763 7.16667 17.6666 9.0418 17.6666 11.3333C17.6666 11.9411 17.5252 12.5175 17.2848 13.0464C17.2326 13.1612 17.2263 13.2899 17.2642 13.407L17.5452 15.2692L15.6179 14.9918C15.517 14.9773 15.4142 14.9939 15.323 15.0395C14.9046 15.2487 14.4506 15.3921 13.966 15.4579L13.966 15.4578L13.9561 15.4593C13.7747 15.4877 13.5749 15.5 13.3666 15.5C10.977 15.5 9.0733 13.6249 9.0733 11.3333C9.0733 10.189 9.54006 9.16906 10.316 8.41099L10.3161 8.41102L10.3202 8.40689ZM18.6666 11.3333C18.6666 12.0399 18.5145 12.705 18.2608 13.3099L18.6344 15.7854C18.658 15.9418 18.6062 16.1001 18.4947 16.2124C18.3833 16.3246 18.2253 16.3774 18.0687 16.3549L15.6262 16.0033C15.153 16.2225 14.644 16.3745 14.1055 16.4481C13.8617 16.4859 13.61 16.5 13.3666 16.5C10.4496 16.5 8.0733 14.2018 8.0733 11.3333C8.0733 9.90543 8.65902 8.6328 9.61515 7.69772C10.5685 6.74541 11.9014 6.16667 13.3733 6.16667C16.2903 6.16667 18.6666 8.46488 18.6666 11.3333ZM7.52968 9.77738C7.72337 9.58056 7.72084 9.26399 7.52402 9.0703C7.32721 8.8766 7.01063 8.87913 6.81694 9.07595C5.90417 10.0034 5.33331 11.2672 5.33331 12.6667C5.33331 13.3733 5.48542 14.0384 5.73912 14.6432L5.36557 17.1187C5.34197 17.2751 5.39376 17.4335 5.50522 17.5457C5.61668 17.6579 5.77467 17.7108 5.93122 17.6882L8.37473 17.3365C9.06373 17.6533 9.82884 17.8333 10.6333 17.8333C10.8072 17.8333 10.9811 17.8261 11.1548 17.8116C11.43 17.7887 11.6345 17.547 11.6116 17.2718C11.5887 16.9966 11.347 16.7921 11.0718 16.8151C10.9256 16.8272 10.7794 16.8333 10.6333 16.8333C9.93396 16.8333 9.26955 16.6661 8.6751 16.3719C8.58441 16.327 8.48223 16.3107 8.38206 16.3251L6.45478 16.6026L6.73579 14.7403C6.77361 14.6232 6.76735 14.4946 6.71516 14.3798C6.47473 13.8508 6.33331 13.2744 6.33331 12.6667C6.33331 11.5461 6.78912 10.5299 7.52968 9.77738ZM11.7733 11.3333C11.7733 11.6205 11.5346 11.8533 11.24 11.8533C10.9454 11.8533 10.7067 11.6205 10.7067 11.3333C10.7067 11.0462 10.9454 10.8133 11.24 10.8133C11.5346 10.8133 11.7733 11.0462 11.7733 11.3333ZM13.9067 11.3333C13.9067 11.6205 13.6679 11.8533 13.3734 11.8533C13.0788 11.8533 12.84 11.6205 12.84 11.3333C12.84 11.0461 13.0788 10.8133 13.3734 10.8133C13.6679 10.8133 13.9067 11.0461 13.9067 11.3333ZM16.0333 11.3333C16.0333 11.6205 15.7946 11.8533 15.5 11.8533C15.2055 11.8533 14.9667 11.6205 14.9667 11.3333C14.9667 11.0461 15.2055 10.8133 15.5 10.8133C15.7946 10.8133 16.0333 11.0461 16.0333 11.3333Z" fill="#5E6EFF"/>
</svg>
