<svg width="16" height="16" viewBox="0 0 16 16" fill="none" xmlns="http://www.w3.org/2000/svg">
<rect width="16" height="16" rx="3.42857" fill="#4154FF"/>
<g clip-path="url(#clip0_454_6231)">
<path fill-rule="evenodd" clip-rule="evenodd" d="M1.32357 4.89015C1.22843 4.84711 1.10062 4.80996 0.895828 4.80996V3.48996C1.28037 3.48996 1.59455 3.56392 1.86774 3.68754C2.11947 3.80145 2.31691 3.95048 2.45742 4.05654C2.46231 4.06023 2.46713 4.06387 2.47189 4.06746C2.62526 4.18312 2.71757 4.24986 2.8254 4.29865C2.92054 4.3417 3.04835 4.37885 3.25314 4.37885C3.45793 4.37885 3.58562 4.3417 3.68056 4.29872C3.7882 4.24998 3.88032 4.18332 4.03354 4.06765C4.03829 4.06406 4.04311 4.06042 4.048 4.05673C4.18837 3.95067 4.3857 3.80156 4.63739 3.68761C4.91055 3.56392 5.22471 3.48996 5.60925 3.48996C5.99379 3.48996 6.30797 3.56392 6.58117 3.68754C6.8329 3.80145 7.03033 3.95048 7.17084 4.05654C7.17573 4.06023 7.18055 4.06387 7.18531 4.06746C7.33868 4.18312 7.43099 4.24986 7.53882 4.29865C7.63396 4.3417 7.76178 4.37885 7.96657 4.37885C8.17136 4.37885 8.29917 4.3417 8.39431 4.29865C8.50214 4.24986 8.59445 4.18312 8.74782 4.06746C8.75258 4.06387 8.7574 4.06023 8.7623 4.05654C8.9028 3.95048 9.10024 3.80145 9.35197 3.68754C9.62516 3.56392 9.93934 3.48996 10.3239 3.48996C10.7084 3.48996 11.0226 3.56392 11.2958 3.68754C11.5475 3.80145 11.745 3.95048 11.8855 4.05654C11.8904 4.06023 11.8952 4.06387 11.8999 4.06746C12.0533 4.18312 12.1456 4.24986 12.2535 4.29865C12.3486 4.3417 12.4764 4.37885 12.6812 4.37885C12.886 4.37885 13.0138 4.3417 13.1089 4.29865C13.2168 4.24986 13.3091 4.18312 13.4625 4.06746C13.4672 4.06387 13.472 4.06023 13.4769 4.05654C13.6174 3.95048 13.8149 3.80145 14.0666 3.68754C14.3398 3.56392 14.654 3.48996 15.0385 3.48996C15.4231 3.48996 15.7372 3.56392 16.0104 3.68754C16.2622 3.80145 16.4596 3.95048 16.6001 4.05654C16.605 4.06023 16.6098 4.06387 16.6146 4.06746C16.7679 4.18312 16.8603 4.24986 16.9681 4.29865C17.0632 4.3417 17.191 4.37885 17.3958 4.37885V5.69885C17.0113 5.69885 16.6971 5.62488 16.4239 5.50127C16.1722 5.38736 15.9748 5.23833 15.8342 5.13227C15.8294 5.12858 15.8245 5.12494 15.8198 5.12135C15.6664 5.00569 15.5741 4.93895 15.4663 4.89015C15.3711 4.84711 15.2433 4.80996 15.0385 4.80996C14.8337 4.80996 14.7059 4.84711 14.6108 4.89015C14.5029 4.93895 14.4106 5.00569 14.2573 5.12135C14.2525 5.12494 14.2477 5.12858 14.2428 5.13227C14.1023 5.23833 13.9048 5.38736 13.6531 5.50127C13.3799 5.62488 13.0657 5.69885 12.6812 5.69885C12.2967 5.69885 11.9825 5.62488 11.7093 5.50127C11.4576 5.38736 11.2601 5.23833 11.1196 5.13227C11.1147 5.12858 11.1099 5.12494 11.1051 5.12135C10.9518 5.00569 10.8595 4.93895 10.7516 4.89015C10.6565 4.84711 10.5287 4.80996 10.3239 4.80996C10.1191 4.80996 9.99128 4.84711 9.89614 4.89015C9.7883 4.93895 9.696 5.00569 9.54262 5.12135C9.53787 5.12494 9.53304 5.12858 9.52815 5.13227C9.38765 5.23833 9.19021 5.38736 8.93848 5.50127C8.66529 5.62488 8.35111 5.69885 7.96657 5.69885C7.58203 5.69885 7.26785 5.62488 6.99465 5.50127C6.74292 5.38736 6.54548 5.23833 6.40498 5.13227C6.40009 5.12858 6.39526 5.12494 6.39051 5.12135C6.23714 5.00569 6.14483 4.93895 6.03699 4.89015C5.94186 4.84711 5.81404 4.80996 5.60925 4.80996C5.40446 4.80996 5.27678 4.84711 5.18184 4.89009C5.07419 4.93883 4.98208 5.00549 4.82886 5.12116C4.8241 5.12474 4.81928 5.12839 4.81439 5.13208C4.67403 5.23814 4.4767 5.38724 4.22501 5.5012C3.95184 5.62488 3.63768 5.69885 3.25314 5.69885C2.8686 5.69885 2.55442 5.62488 2.28123 5.50127C2.0295 5.38736 1.83206 5.23833 1.69156 5.13227C1.68666 5.12858 1.68184 5.12494 1.67709 5.12135C1.52371 5.00569 1.43141 4.93895 1.32357 4.89015Z" fill="white"/>
</g>
<g clip-path="url(#clip1_454_6231)">
<path fill-rule="evenodd" clip-rule="evenodd" d="M1.32357 8.19017C1.22843 8.14712 1.10062 8.10998 0.895828 8.10998V6.78998C1.28037 6.78998 1.59455 6.86394 1.86774 6.98756C2.11947 7.10147 2.31691 7.2505 2.45742 7.35656C2.46231 7.36025 2.46713 7.36389 2.47189 7.36747C2.62526 7.48314 2.71757 7.54988 2.8254 7.59867C2.92054 7.64172 3.04835 7.67887 3.25314 7.67887C3.45793 7.67887 3.58562 7.64172 3.68056 7.59873C3.7882 7.55 3.88032 7.48334 4.03354 7.36767C4.03829 7.36408 4.04311 7.36044 4.048 7.35674C4.18837 7.25068 4.3857 7.10158 4.63739 6.98762C4.91055 6.86394 5.22471 6.78998 5.60925 6.78998C5.99379 6.78998 6.30797 6.86394 6.58117 6.98756C6.8329 7.10147 7.03033 7.2505 7.17084 7.35656C7.17573 7.36025 7.18055 7.36389 7.18531 7.36747C7.33868 7.48314 7.43099 7.54988 7.53882 7.59867C7.63396 7.64172 7.76178 7.67887 7.96657 7.67887C8.17136 7.67887 8.29917 7.64172 8.39431 7.59867C8.50214 7.54988 8.59445 7.48314 8.74782 7.36747C8.75258 7.36389 8.7574 7.36025 8.7623 7.35656C8.9028 7.2505 9.10024 7.10147 9.35197 6.98756C9.62516 6.86394 9.93934 6.78998 10.3239 6.78998C10.7084 6.78998 11.0226 6.86394 11.2958 6.98756C11.5475 7.10147 11.745 7.2505 11.8855 7.35656C11.8904 7.36025 11.8952 7.36389 11.8999 7.36747C12.0533 7.48314 12.1456 7.54988 12.2535 7.59867C12.3486 7.64172 12.4764 7.67887 12.6812 7.67887C12.886 7.67887 13.0138 7.64172 13.1089 7.59867C13.2168 7.54988 13.3091 7.48314 13.4625 7.36747C13.4672 7.36389 13.472 7.36025 13.4769 7.35656C13.6174 7.2505 13.8149 7.10147 14.0666 6.98756C14.3398 6.86394 14.654 6.78998 15.0385 6.78998C15.4231 6.78998 15.7372 6.86394 16.0104 6.98756C16.2622 7.10147 16.4596 7.2505 16.6001 7.35656C16.605 7.36025 16.6098 7.36389 16.6146 7.36747C16.7679 7.48314 16.8603 7.54988 16.9681 7.59867C17.0632 7.64172 17.191 7.67887 17.3958 7.67887V8.99887C17.0113 8.99887 16.6971 8.9249 16.4239 8.80128C16.1722 8.68738 15.9748 8.53835 15.8342 8.43229C15.8294 8.4286 15.8245 8.42496 15.8198 8.42137C15.6664 8.3057 15.5741 8.23897 15.4663 8.19017C15.3711 8.14712 15.2433 8.10998 15.0385 8.10998C14.8337 8.10998 14.7059 8.14712 14.6108 8.19017C14.5029 8.23897 14.4106 8.3057 14.2573 8.42137C14.2525 8.42495 14.2477 8.4286 14.2428 8.43229C14.1023 8.53835 13.9048 8.68738 13.6531 8.80128C13.3799 8.9249 13.0657 8.99887 12.6812 8.99887C12.2967 8.99887 11.9825 8.9249 11.7093 8.80128C11.4576 8.68738 11.2601 8.53835 11.1196 8.43229C11.1147 8.4286 11.1099 8.42496 11.1051 8.42137C10.9518 8.3057 10.8595 8.23897 10.7516 8.19017C10.6565 8.14712 10.5287 8.10998 10.3239 8.10998C10.1191 8.10998 9.99128 8.14712 9.89614 8.19017C9.7883 8.23897 9.696 8.3057 9.54262 8.42137C9.53787 8.42496 9.53304 8.4286 9.52815 8.43229C9.38765 8.53835 9.19021 8.68738 8.93848 8.80128C8.66529 8.9249 8.35111 8.99887 7.96657 8.99887C7.58203 8.99887 7.26785 8.9249 6.99465 8.80128C6.74292 8.68738 6.54548 8.53835 6.40498 8.43229C6.40009 8.4286 6.39526 8.42496 6.39051 8.42137C6.23714 8.3057 6.14483 8.23897 6.03699 8.19017C5.94186 8.14712 5.81404 8.10998 5.60925 8.10998C5.40446 8.10998 5.27678 8.14712 5.18184 8.19011C5.07419 8.23885 4.98208 8.3055 4.82886 8.42117C4.8241 8.42476 4.81928 8.42841 4.81439 8.4321C4.67403 8.53816 4.4767 8.68726 4.22501 8.80122C3.95184 8.9249 3.63768 8.99887 3.25314 8.99887C2.8686 8.99887 2.55442 8.9249 2.28123 8.80128C2.0295 8.68738 1.83206 8.53835 1.69156 8.43229C1.68666 8.4286 1.68184 8.42496 1.67709 8.42137C1.52371 8.3057 1.43141 8.23897 1.32357 8.19017Z" fill="white"/>
</g>
<g clip-path="url(#clip2_454_6231)">
<path fill-rule="evenodd" clip-rule="evenodd" d="M1.32357 11.4902C1.22843 11.4471 1.10062 11.41 0.895828 11.41V10.09C1.28037 10.09 1.59455 10.164 1.86774 10.2876C2.11947 10.4015 2.31691 10.5505 2.45742 10.6566C2.46231 10.6603 2.46713 10.6639 2.47189 10.6675C2.62526 10.7832 2.71757 10.8499 2.8254 10.8987C2.92054 10.9417 3.04835 10.9789 3.25314 10.9789C3.45793 10.9789 3.58562 10.9417 3.68056 10.8988C3.7882 10.85 3.88032 10.7834 4.03354 10.6677C4.03829 10.6641 4.04311 10.6605 4.048 10.6568C4.18837 10.5507 4.3857 10.4016 4.63739 10.2876C4.91055 10.164 5.22471 10.09 5.60925 10.09C5.99379 10.09 6.30797 10.164 6.58117 10.2876C6.8329 10.4015 7.03033 10.5505 7.17084 10.6566C7.17573 10.6603 7.18055 10.6639 7.18531 10.6675C7.33868 10.7832 7.43099 10.8499 7.53882 10.8987C7.63396 10.9417 7.76178 10.9789 7.96657 10.9789C8.17136 10.9789 8.29917 10.9417 8.39431 10.8987C8.50214 10.8499 8.59445 10.7832 8.74782 10.6675C8.75258 10.6639 8.7574 10.6603 8.7623 10.6566C8.9028 10.5505 9.10024 10.4015 9.35197 10.2876C9.62516 10.164 9.93934 10.09 10.3239 10.09C10.7084 10.09 11.0226 10.164 11.2958 10.2876C11.5475 10.4015 11.745 10.5505 11.8855 10.6566C11.8904 10.6603 11.8952 10.6639 11.8999 10.6675C12.0533 10.7832 12.1456 10.8499 12.2535 10.8987C12.3486 10.9417 12.4764 10.9789 12.6812 10.9789C12.886 10.9789 13.0138 10.9417 13.1089 10.8987C13.2168 10.8499 13.3091 10.7832 13.4625 10.6675C13.4672 10.6639 13.472 10.6603 13.4769 10.6566C13.6174 10.5505 13.8149 10.4015 14.0666 10.2876C14.3398 10.164 14.654 10.09 15.0385 10.09C15.4231 10.09 15.7372 10.164 16.0104 10.2876C16.2622 10.4015 16.4596 10.5505 16.6001 10.6566C16.605 10.6603 16.6098 10.6639 16.6146 10.6675C16.7679 10.7832 16.8603 10.8499 16.9681 10.8987C17.0632 10.9417 17.191 10.9789 17.3958 10.9789V12.2989C17.0113 12.2989 16.6971 12.2249 16.4239 12.1013C16.1722 11.9874 15.9748 11.8384 15.8342 11.7323C15.8294 11.7286 15.8245 11.725 15.8198 11.7214C15.6664 11.6057 15.5741 11.539 15.4663 11.4902C15.3711 11.4471 15.2433 11.41 15.0385 11.41C14.8337 11.41 14.7059 11.4471 14.6108 11.4902C14.5029 11.539 14.4106 11.6057 14.2573 11.7214C14.2525 11.725 14.2477 11.7286 14.2428 11.7323C14.1023 11.8384 13.9048 11.9874 13.6531 12.1013C13.3799 12.2249 13.0657 12.2989 12.6812 12.2989C12.2967 12.2989 11.9825 12.2249 11.7093 12.1013C11.4576 11.9874 11.2601 11.8384 11.1196 11.7323C11.1147 11.7286 11.1099 11.725 11.1051 11.7214C10.9518 11.6057 10.8595 11.539 10.7516 11.4902C10.6565 11.4471 10.5287 11.41 10.3239 11.41C10.1191 11.41 9.99128 11.4471 9.89614 11.4902C9.7883 11.539 9.696 11.6057 9.54262 11.7214C9.53787 11.725 9.53304 11.7286 9.52815 11.7323C9.38765 11.8384 9.19021 11.9874 8.93848 12.1013C8.66529 12.2249 8.35111 12.2989 7.96657 12.2989C7.58203 12.2989 7.26785 12.2249 6.99465 12.1013C6.74292 11.9874 6.54548 11.8384 6.40498 11.7323C6.40009 11.7286 6.39526 11.725 6.39051 11.7214C6.23714 11.6057 6.14483 11.539 6.03699 11.4902C5.94186 11.4471 5.81404 11.41 5.60925 11.41C5.40446 11.41 5.27678 11.4471 5.18184 11.4901C5.07419 11.5389 4.98208 11.6055 4.82886 11.7212C4.8241 11.7248 4.81928 11.7284 4.81439 11.7321C4.67403 11.8382 4.4767 11.9873 4.22501 12.1012C3.95184 12.2249 3.63768 12.2989 3.25314 12.2989C2.8686 12.2989 2.55442 12.2249 2.28123 12.1013C2.0295 11.9874 1.83206 11.8384 1.69156 11.7323C1.68666 11.7286 1.68184 11.725 1.67709 11.7214C1.52371 11.6057 1.43141 11.539 1.32357 11.4902Z" fill="white"/>
</g>
<defs>
<clipPath id="clip0_454_6231">
<rect width="11" height="4.4" fill="white" transform="translate(2.5 2.5)"/>
</clipPath>
<clipPath id="clip1_454_6231">
<rect width="11" height="4.4" fill="white" transform="translate(2.5 5.80002)"/>
</clipPath>
<clipPath id="clip2_454_6231">
<rect width="11" height="4.4" fill="white" transform="translate(2.5 9.10001)"/>
</clipPath>
</defs>
</svg>
