<svg width="24" height="24" viewBox="0 0 24 24" fill="none" xmlns="http://www.w3.org/2000/svg">
<rect width="24" height="24" rx="4" fill="#8D98FF" fill-opacity="0.15"/>
<path d="M13.8533 18.1667H10.1466V14.2C10.1466 13.8333 10.4466 13.5333 10.8133 13.5333H13.1866C13.5533 13.5333 13.8533 13.8333 13.8533 14.2V18.1667V18.1667Z" stroke="#5E6EFF" stroke-width="1.2" stroke-linecap="round" stroke-linejoin="round"/>
<path d="M18.1667 11.5934V16.0667C18.1667 17.2267 17.2734 18.1667 16.1667 18.1667H7.83337C6.72671 18.1667 5.83337 17.2267 5.83337 16.0667V11.5934C5.83337 10.9667 6.09337 10.38 6.55337 9.98002L10.72 6.32002C11.46 5.66668 12.54 5.66668 13.28 6.32002L17.4467 9.98002C17.9067 10.38 18.1667 10.9667 18.1667 11.5934Z" stroke="#5E6EFF" stroke-width="1.2" stroke-linecap="round" stroke-linejoin="round"/>
</svg>
