<?xml version="1.0" encoding="utf-8"?>
<!-- Generator: Adobe Illustrator 26.3.1, SVG Export Plug-In . SVG Version: 6.00 Build 0)  -->
<svg version="1.1" id="Layer_1" xmlns="http://www.w3.org/2000/svg" xmlns:xlink="http://www.w3.org/1999/xlink" x="0px" y="0px"
	 viewBox="0 0 178.8 70.9" style="enable-background:new 0 0 178.8 70.9;" xml:space="preserve">
<style type="text/css">
	.st0{fill:#4154FF;}
</style>
<path class="st0" d="M24.3,34.9c-0.9-0.7-2-1.2-3.2-1.7s-2.7-0.9-4.3-1.3c-0.5-0.1-1-0.2-1.5-0.2c-0.5-0.1-1-0.2-1.5-0.2
	c-0.7-0.2-1.4-0.5-2-1c-0.6-0.4-0.9-1.1-0.9-1.9c0-0.7,0.3-1.3,0.9-2c0.6-0.7,1.4-1,2.4-1s1.9,0.3,2.8,0.8c0.9,0.5,1.5,1.2,1.7,2.1
	l7.6-2.6c-0.4-1.3-1-2.4-1.7-3.5c-0.8-1-1.7-1.9-2.8-2.7c-1.1-0.8-2.3-1.3-3.6-1.8c-1.3-0.4-2.7-0.6-4.2-0.6c-1.8,0-3.4,0.3-5,0.9
	c-1.5,0.6-2.9,1.4-4.1,2.4s-2.1,2.2-2.7,3.6c-0.7,1.4-1,2.8-1,4.3c0,0.6,0,1.3,0.1,2.3c0.1,0.9,0.4,1.9,1,3c0.6,1,1.6,2.1,3,3.1
	s3.3,1.8,5.9,2.4c0.8,0.2,1.5,0.4,2.1,0.4s1.4,0.2,2.4,0.6c0.7,0.2,1.3,0.6,1.8,1s0.8,0.8,0.8,1.3c0,0.7-0.4,1.4-1.1,2.1
	c-0.8,0.8-2,1.1-3.6,1.1s-2.8-0.3-3.7-0.9c-0.9-0.6-1.6-1.2-2-2c-1,0.5-2.2,1.1-3.5,1.7c-1.3,0.6-2.5,1.2-3.6,1.7
	c0.4,1.1,1.1,2.2,2,3.1c0.9,0.9,1.9,1.7,3.1,2.4s2.5,1.2,3.9,1.6c1.4,0.4,2.8,0.6,4.3,0.6c1.9,0,3.8-0.3,5.5-0.9
	c1.7-0.6,3.2-1.4,4.5-2.4s2.3-2.2,3-3.6c0.7-1.4,1.1-2.8,1.1-4.4C28.2,39.3,26.9,36.7,24.3,34.9z"/>
<path class="st0" d="M82.4,0.5c-1.5,0-2.8,0.5-3.9,1.6c-1,1.1-1.6,2.4-1.6,3.9s0.5,2.8,1.6,3.8c1,1,2.3,1.6,3.9,1.6
	c1.5,0,2.8-0.5,3.9-1.6c1-1,1.6-2.3,1.6-3.8s-0.5-2.8-1.6-3.9C85.3,1.1,84,0.5,82.4,0.5z"/>
<path class="st0" d="M56.6,18.1l-7.2,25.5l-7.3-25.5H31.9l10.6,35.2h12.4l5.7-19l5.6,19h2.7l2.8-9.6l-7.1-25.6
	C64.6,18.1,56.6,18.1,56.6,18.1z"/>
<path class="st0" d="M91.3,28.7l1.4,5l2.9,10l0,0l2.8,9.6h-9.7l-5.3-17.5l-5.3-17.7h10.1L91.3,28.7z"/>
<path class="st0" d="M176.7,25.5c-0.8-1.9-1.8-3.4-3.1-4.5s-2.6-1.8-4.1-2.3c-1.5-0.4-2.9-0.6-4.1-0.6c-1,0-1.9,0.1-3,0.3
	c-1,0.2-2,0.5-3,1s-1.8,1-2.6,1.7s-1.5,1.5-2.1,2.4c-0.7-1-1.4-1.9-2.2-2.6c-0.2-0.1-0.3-0.3-0.5-0.4l0,0c-1.1-0.8-2.3-1.4-3.5-1.8
	c-1.5-0.4-2.9-0.6-4.1-0.6c-1,0-1.9,0.1-3,0.3c-1,0.2-2,0.5-3,1s-1.8,1-2.6,1.7s-1.5,1.5-2.1,2.4c-0.7-1-1.4-1.9-2.2-2.6
	c-0.2-0.1-0.3-0.3-0.5-0.4c-0.7-0.5-1.4-0.9-2.1-1.3c-0.9-0.4-1.8-0.7-2.8-0.9c-1-0.2-1.9-0.3-2.7-0.3c-1.7,0-3.2,0.3-4.7,0.9
	s-2.7,1.4-3.8,2.4l-1.4-3.3h-8.4v35.2h9.8V34.7c0-2.7,0.5-4.7,1.6-5.9c1.1-1.3,2.3-1.9,3.7-1.9c1.9,0,3.4,0.6,4.4,1.7
	c1,1.1,1.5,3.1,1.5,6v18.7h4.9h5V34.5c0-1.5,0.2-2.8,0.5-3.7c0.3-1,0.7-1.8,1.2-2.3c0.5-0.6,1.1-1,1.8-1.2s1.3-0.4,2-0.4
	s1.4,0.1,2.1,0.4c0.7,0.3,1.3,0.7,1.8,1.3s0.9,1.4,1.2,2.4s0.5,2.2,0.5,3.6v18.7h4.9h4.9h0.1V34.5c0-1.5,0.2-2.8,0.5-3.7
	c0.3-1,0.7-1.8,1.2-2.3c0.5-0.6,1.1-1,1.8-1.2s1.3-0.4,2-0.4s1.4,0.1,2.1,0.4c0.7,0.3,1.3,0.7,1.8,1.3s0.9,1.4,1.2,2.4
	s0.5,2.2,0.5,3.6v18.7h9.8V32.7C177.9,29.8,177.5,27.4,176.7,25.5z"/>
</svg>
