<svg width="222" height="83" viewBox="0 0 222 83" fill="none" xmlns="http://www.w3.org/2000/svg">
<path d="M46.413 40.2737C45.5091 39.6125 44.4512 39.0451 43.2389 38.5719C42.0262 38.1 40.5873 37.6743 38.9233 37.2955C38.4473 37.2011 37.9602 37.1182 37.461 37.0474C36.9619 36.9766 36.4501 36.8944 35.9275 36.799C35.2142 36.6107 34.5596 36.2915 33.9661 35.8418C33.3706 35.3932 33.0742 34.7673 33.0742 33.9628C33.0742 33.3013 33.383 32.6398 34.0012 31.9774C34.6188 31.3159 35.428 30.9847 36.4266 30.9847C37.4252 30.9847 38.3636 31.245 39.2441 31.7645C40.1236 32.2853 40.7067 32.9698 40.9921 33.8208L48.624 31.2683C48.2429 29.9916 47.6612 28.8339 46.8767 27.7937C46.0918 26.7544 45.1525 25.8558 44.0592 25.0988C42.9642 24.3432 41.7519 23.7516 40.421 23.3262C39.0896 22.9009 37.6862 22.688 36.2128 22.688C34.4528 22.688 32.8002 22.996 31.2556 23.6099C29.7094 24.2248 28.3542 25.0403 27.1896 26.0563C26.0238 27.0733 25.1085 28.2666 24.4431 29.6374C23.777 31.0089 23.4448 32.4503 23.4448 33.9628C23.4448 34.5302 23.4802 35.2868 23.5515 36.2319C23.6228 37.1781 23.9673 38.1708 24.5859 39.2101C25.2032 40.2504 26.191 41.2787 27.5462 42.2947C28.9015 43.312 30.8629 44.1275 33.4311 44.7411C34.2391 44.9782 34.9523 45.1079 35.5709 45.1312C36.1881 45.1554 36.9729 45.356 37.9247 45.7338C38.5901 45.9709 39.1839 46.2902 39.7078 46.6913C40.2307 47.0933 40.4926 47.531 40.4926 48.0029C40.4926 48.6654 40.1113 49.3744 39.3512 50.1304C38.5901 50.887 37.4008 51.2648 35.7846 51.2648C34.2156 51.2648 32.9785 50.9701 32.0756 50.3785C31.1717 49.7878 30.5063 49.1376 30.0784 48.4283C29.0798 48.9491 27.9139 49.5274 26.5831 50.1659C25.2513 50.8038 24.0386 51.3835 22.9453 51.903C23.3732 53.0374 24.0262 54.0657 24.9067 54.9876C25.7862 55.9094 26.8203 56.7016 28.0099 57.3631C29.1979 58.0256 30.4939 58.5454 31.8973 58.9232C33.2994 59.301 34.7382 59.4905 36.2128 59.4905C38.1619 59.4905 39.9935 59.1946 41.7053 58.6039C43.4172 58.0133 44.9149 57.1981 46.1989 56.1575C47.4832 55.1182 48.4928 53.913 49.2305 52.5412C49.9672 51.1706 50.3361 49.7047 50.3361 48.1446C50.3361 44.7411 49.0278 42.1174 46.413 40.2737Z" fill="white"/>
<path d="M105.545 5.92626C104.019 5.92626 102.733 6.45901 101.685 7.52484C100.636 8.59066 100.113 9.88162 100.113 11.3971C100.113 12.9135 100.636 14.1922 101.685 15.2334C102.733 16.2759 104.019 16.7964 105.545 16.7964C107.069 16.7964 108.355 16.2759 109.404 15.2334C110.451 14.1922 110.976 12.9135 110.976 11.3971C110.976 9.88162 110.451 8.59066 109.404 7.52484C108.355 6.45901 107.069 5.92626 105.545 5.92626Z" fill="white"/>
<path d="M78.6518 23.539L71.519 48.9956L64.1719 23.539H54.043L64.6713 58.7103H77.0828L82.2183 41.7628L82.789 36.7284L83.2882 41.7628L88.424 58.7103H91.1641L93.9754 49.0929L86.8547 23.539H78.6518Z" fill="white"/>
<path d="M113.367 34.0991L114.816 39.0992L117.725 49.1374L117.738 49.0931L120.549 58.7104H110.806L105.518 41.2102L100.178 23.5391H110.307L113.367 34.0991Z" fill="white"/>
<path d="M198.803 30.9137C197.994 29.0233 196.96 27.5341 195.7 26.4463C194.44 25.3594 193.072 24.6025 191.599 24.1771C190.124 23.7518 188.746 23.5389 187.462 23.5389C186.51 23.5389 185.523 23.6466 184.501 23.8614C183.478 24.0762 182.492 24.41 181.541 24.8619C180.589 25.3151 179.71 25.8867 178.902 26.5782C178.093 27.2695 177.404 28.0672 176.833 28.9725C176.167 27.9245 175.418 27.0547 174.586 26.3631C174.414 26.2202 174.24 26.0862 174.064 25.9543V25.9688C172.97 25.1362 171.801 24.5368 170.556 24.1771C169.081 23.7518 167.702 23.5389 166.418 23.5389C165.467 23.5389 164.48 23.6466 163.458 23.8614C162.435 24.0762 161.448 24.41 160.498 24.8619C159.546 25.3151 158.666 25.8867 157.858 26.5782C157.05 27.2695 156.361 28.0672 155.79 28.9725C155.124 27.9245 154.375 27.0547 153.543 26.3631C153.371 26.2202 153.196 26.0862 153.021 25.9543C152.349 25.4493 151.656 25.0236 150.94 24.6834C150.036 24.2548 149.108 23.9565 148.158 23.7896C147.206 23.6234 146.303 23.5389 145.447 23.5389C143.782 23.5389 142.225 23.8259 140.775 24.3974C139.324 24.9696 138.052 25.7793 136.959 26.8276L135.532 23.5389H127.115V58.7105H136.959V40.1108C136.959 37.4238 137.505 35.4441 138.6 34.171C139.693 32.8981 140.929 32.2609 142.309 32.2609C144.21 32.2609 145.661 32.8273 146.66 33.9585C147.658 35.0906 148.158 37.0938 148.158 39.9691V58.7105H153.021H158.001V39.8993C158.001 38.3903 158.155 37.1414 158.465 36.1512C158.774 35.1605 159.189 34.3829 159.713 33.8165C160.236 33.2514 160.83 32.8503 161.497 32.6145C162.162 32.3793 162.827 32.2609 163.494 32.2609C164.207 32.2609 164.908 32.3903 165.598 32.6497C166.287 32.9091 166.893 33.3455 167.417 33.9585C167.94 34.5724 168.355 35.3733 168.665 36.3628C168.974 37.3533 169.129 38.5553 169.129 39.9691V58.7105H174.064H178.973H179.045V39.8993C179.045 38.3903 179.198 37.1414 179.508 36.1512C179.817 35.1605 180.233 34.3829 180.756 33.8165C181.28 33.2514 181.873 32.8503 182.54 32.6145C183.205 32.3793 183.87 32.2609 184.537 32.2609C185.251 32.2609 185.951 32.3903 186.641 32.6497C187.33 32.9091 187.936 33.3455 188.46 33.9585C188.983 34.5724 189.399 35.3733 189.708 36.3628C190.018 37.3533 190.172 38.5553 190.172 39.9691V58.7105H200.016V38.1464C200.016 35.2158 199.611 32.805 198.803 30.9137Z" fill="white"/>
</svg>
