<svg width="24" height="24" viewBox="0 0 24 24" fill="none" xmlns="http://www.w3.org/2000/svg">
<path fill-rule="evenodd" clip-rule="evenodd" d="M8.5 9.48999C8.5 7.41892 10.1789 5.73999 12.25 5.73999C14.3211 5.73999 16 7.41892 16 9.48999C16 11.5611 14.3211 13.24 12.25 13.24C10.1789 13.24 8.5 11.5611 8.5 9.48999ZM12.25 4.23999C9.3505 4.23999 7 6.5905 7 9.48999C7 12.1348 8.95578 14.3229 11.5 14.6868V23.01C11.5 23.4242 11.8358 23.76 12.25 23.76C12.6642 23.76 13 23.4242 13 23.01V14.6868C15.5442 14.3229 17.5 12.1348 17.5 9.48999C17.5 6.5905 15.1495 4.23999 12.25 4.23999Z" fill="#ACB4FF"/>
</svg>
