<svg width="16" height="17" viewBox="0 0 16 17" fill="none" xmlns="http://www.w3.org/2000/svg">
<path d="M14.3575 14.002L14.3574 14.0019L11.2043 10.8992C12.0213 9.94745 12.5189 8.71926 12.5189 7.37373V7.3737C12.5184 4.34748 10.0267 1.90001 6.95951 1.90001C3.89234 1.90001 1.40059 4.34748 1.40059 7.37373C1.40059 10.4 3.89234 12.8474 6.95951 12.8474C8.22101 12.8474 9.3837 12.4321 10.3167 11.7347L13.4935 14.861C13.4936 14.8611 13.4936 14.8611 13.4936 14.8611C13.7323 15.0962 14.1183 15.0962 14.357 14.8611C14.5979 14.6243 14.5979 14.2388 14.3575 14.002ZM6.95951 11.6361C4.56266 11.6361 2.62513 9.72474 2.62513 7.37373C2.62513 5.02271 4.56266 3.1114 6.95951 3.1114C9.35638 3.1114 11.2939 5.02271 11.2939 7.37373C11.2939 9.72474 9.35638 11.6361 6.95951 11.6361Z" fill="#8D98FF" stroke="#8D98FF" stroke-width="0.4"/>
</svg>
