<svg width="24" height="24" viewBox="0 0 24 24" fill="none" xmlns="http://www.w3.org/2000/svg">
<rect width="24" height="24" rx="4" fill="#8D98FF" fill-opacity="0.15"/>
<path fill-rule="evenodd" clip-rule="evenodd" d="M12.5025 9.12533C11.6021 8.96228 10.6352 9.23853 9.9368 9.9369C9.23843 10.6353 8.96219 11.6022 9.12524 12.5026L9.12577 12.5055L9.12576 12.5055C9.22563 13.0762 9.49658 13.6312 9.9368 14.0715C10.3779 14.5126 10.9248 14.7826 11.5017 14.8823L11.5057 14.883C12.406 15.0461 13.373 14.7698 14.0714 14.0715C14.7677 13.3752 15.0391 12.4079 14.8823 11.5023C14.7823 10.9318 14.5114 10.377 14.0714 9.9369C13.6302 9.49577 13.0834 9.22575 12.5064 9.12603L12.5025 9.12533ZM12.6787 8.14098C11.4629 7.92146 10.1641 8.29533 9.22969 9.22979C8.2951 10.1644 7.92127 11.4634 8.14098 12.6793C8.27465 13.4414 8.63695 14.1858 9.22969 14.7786C9.82139 15.3703 10.5571 15.7335 11.3294 15.8674C12.5452 16.0869 13.844 15.713 14.7785 14.7786C15.7154 13.8416 16.0773 12.5423 15.8676 11.3313L15.8674 11.3305C15.734 10.5678 15.3716 9.82291 14.7785 9.22979C14.1868 8.6381 13.451 8.27487 12.6787 8.14098Z" fill="#5E6EFF"/>
<path fill-rule="evenodd" clip-rule="evenodd" d="M15.1939 12.1225C15.3611 12.0609 15.5485 12.093 15.6857 12.2067C16.8534 13.1742 18.0211 14.1501 19.1803 15.1258C19.3578 15.2752 19.4092 15.527 19.3045 15.734C18.9223 16.4895 18.4164 17.1904 17.7965 17.8106C17.1811 18.4346 16.4784 18.9321 15.7257 19.3128C15.5174 19.4182 15.2639 19.3654 15.115 19.1857C14.1492 18.0201 13.175 16.8544 12.2008 15.697C12.0855 15.56 12.0522 15.3718 12.1136 15.2036C12.175 15.0353 12.3217 14.9128 12.4982 14.8823C13.0751 14.7826 13.622 14.5126 14.0631 14.0715C14.5033 13.6312 14.7743 13.0762 14.8741 12.5055C14.9049 12.33 15.0267 12.184 15.1939 12.1225ZM15.6356 13.4645C15.4445 13.9422 15.1562 14.3925 14.7702 14.7786C14.3852 15.1635 13.9393 15.4518 13.4619 15.6431C14.1842 16.5033 14.9058 17.3674 15.6232 18.232C16.1534 17.9267 16.6462 17.553 17.0856 17.1073L17.0881 17.1048L17.0881 17.1048C17.5377 16.6552 17.9178 16.1587 18.2247 15.6287C17.3646 14.9057 16.5005 14.1832 15.6356 13.4645Z" fill="#5E6EFF"/>
<path fill-rule="evenodd" clip-rule="evenodd" d="M8.27429 4.68719C8.48258 4.58181 8.73607 4.63459 8.88501 4.81434C9.85078 5.97992 10.8249 7.1456 11.7992 8.30303C11.9145 8.44003 11.9478 8.62824 11.8864 8.79646C11.8249 8.96467 11.6783 9.08721 11.5018 9.11771C10.9248 9.21743 10.378 9.48743 9.93688 9.92855C9.49667 10.3688 9.22572 10.9238 9.12584 11.4945C9.09513 11.6701 8.97332 11.816 8.8061 11.8775C8.63888 11.9391 8.45153 11.907 8.31432 11.7934C7.14751 10.8266 5.97198 9.85111 4.81296 8.88388C4.63425 8.73473 4.5821 8.482 4.68717 8.27429C5.06959 7.51835 5.57595 6.81693 6.19644 6.19644C6.81694 5.57595 7.51835 5.0696 8.27429 4.68719ZM8.37711 5.76847C7.848 6.07503 7.35244 6.45466 6.90355 6.90355C6.45436 7.35274 6.07452 7.84865 5.76786 8.37815C6.62867 9.09581 7.4975 9.81731 8.36425 10.5359C8.55529 10.0581 8.84364 9.60758 9.22978 9.22145C9.61476 8.83646 10.0607 8.54821 10.5381 8.35692C9.81588 7.49682 9.09444 6.63288 8.37711 5.76847Z" fill="#5E6EFF"/>
<path fill-rule="evenodd" clip-rule="evenodd" d="M15.1258 4.81968C15.2751 4.6422 15.527 4.59078 15.734 4.6955C16.4894 5.07766 17.1904 5.5836 17.8106 6.20351C18.4346 6.81888 18.932 7.52162 19.3128 8.27429C19.4182 8.48258 19.3654 8.73607 19.1856 8.885C18.02 9.85077 16.8544 10.8249 15.6969 11.7992C15.5599 11.9145 15.3717 11.9477 15.2035 11.8863C15.0353 11.8249 14.9128 11.6783 14.8823 11.5018C14.7825 10.9249 14.5125 10.378 14.0714 9.93689C13.6312 9.49667 13.0761 9.22572 12.5054 9.12584C12.3299 9.09513 12.184 8.97332 12.1224 8.8061C12.0608 8.63888 12.0929 8.45153 12.2066 8.31432C13.1742 7.14657 14.15 5.97891 15.1258 4.81968ZM15.6286 5.77532C14.9057 6.63536 14.1831 7.49953 13.4645 8.36441C13.9421 8.55547 14.3925 8.84376 14.7785 9.22979C15.1635 9.61477 15.4517 10.0607 15.643 10.5381C16.5033 9.81576 17.3674 9.09419 18.2319 8.37674C17.9266 7.84659 17.553 7.35376 17.1073 6.91442L17.1047 6.9119L17.1047 6.91189C16.6551 6.46228 16.1587 6.08214 15.6286 5.77532Z" fill="#5E6EFF"/>
<path fill-rule="evenodd" clip-rule="evenodd" d="M8.79644 12.1137C8.96466 12.1751 9.08719 12.3217 9.11769 12.4982C9.21741 13.0752 9.48742 13.622 9.92855 14.0631C10.3688 14.5033 10.9238 14.7743 11.4945 14.8742C11.67 14.9049 11.816 15.0267 11.8775 15.1939C11.9391 15.3611 11.907 15.5485 11.7933 15.6857C10.8266 16.8525 9.85111 18.028 8.88388 19.187C8.73474 19.3657 8.482 19.4179 8.27429 19.3128C7.51835 18.9304 6.81694 18.4241 6.19644 17.8036C5.57595 17.1831 5.06959 16.4817 4.68717 15.7257C4.5818 15.5174 4.63457 15.2639 4.81432 15.115C5.97991 14.1492 7.14558 13.1751 8.30301 12.2008C8.44001 12.0855 8.62822 12.0523 8.79644 12.1137ZM5.76846 15.6229C6.07502 16.152 6.45465 16.6476 6.90355 17.0965C7.35274 17.5456 7.84865 17.9255 8.37816 18.2321C9.09581 17.3713 9.8173 16.5025 10.5359 15.6358C10.0581 15.4447 9.60758 15.1564 9.22144 14.7702C8.83646 14.3852 8.5482 13.9393 8.3569 13.462C7.4968 14.1841 6.63286 14.9056 5.76846 15.6229Z" fill="#5E6EFF"/>
<path fill-rule="evenodd" clip-rule="evenodd" d="M12 4.79166C8.01897 4.79166 4.79169 8.01895 4.79169 12C4.79169 15.9811 8.01897 19.2083 12 19.2083C15.9811 19.2083 19.2084 15.9811 19.2084 12C19.2084 8.01895 15.9811 4.79166 12 4.79166ZM3.79169 12C3.79169 7.46666 7.46668 3.79166 12 3.79166C16.5334 3.79166 20.2084 7.46666 20.2084 12C20.2084 16.5333 16.5334 20.2083 12 20.2083C7.46668 20.2083 3.79169 16.5333 3.79169 12Z" fill="#5E6EFF"/>
</svg>
