<svg width="24" height="24" viewBox="0 0 24 24" fill="none" xmlns="http://www.w3.org/2000/svg">
<rect width="24" height="24" rx="4" fill="#8D98FF" fill-opacity="0.15"/>
<path fill-rule="evenodd" clip-rule="evenodd" d="M9.29988 5.31443C10.1338 4.97729 11.0452 4.79166 12 4.79166C12.9575 4.79166 13.8714 4.97836 14.7073 5.31732C13.931 6.24156 13.1553 7.17038 12.3846 8.09958C12.1325 8.07398 11.8784 8.07336 11.6262 8.09743C10.849 7.17328 10.0721 6.24421 9.29988 5.31443ZM5.31379 9.3015C4.97707 10.135 4.79169 11.0458 4.79169 12C4.79169 12.9548 4.97731 13.8662 5.31444 14.7001C6.24451 13.9276 7.17388 13.1505 8.09832 12.373C8.07349 12.1208 8.07364 11.8667 8.09848 11.6145C7.17055 10.8455 6.2381 10.0717 5.31379 9.3015ZM9.30149 18.6862C10.135 19.0229 11.0459 19.2083 12 19.2083C12.9548 19.2083 13.8662 19.0227 14.7001 18.6856C13.9302 17.7586 13.1557 16.8324 12.3809 15.911C12.1244 15.9354 11.866 15.9343 11.6097 15.9073C10.8423 16.8333 10.0701 17.7638 9.30149 18.6862ZM17.015 17.1778C16.6353 17.5457 16.2152 17.8722 15.762 18.15C15.716 18.1779 15.6698 18.2052 15.6232 18.232C14.907 17.3688 14.1866 16.5062 13.4655 15.6473C13.9443 15.4549 14.3925 15.1646 14.7785 14.7786C15.1637 14.3933 15.4517 13.9469 15.6428 13.4705C16.5052 14.1872 17.367 14.9077 18.2247 15.6287C17.9178 16.1587 17.5377 16.6552 17.0881 17.1048L17.0856 17.1073C17.0622 17.131 17.0387 17.1545 17.015 17.1778ZM16.3104 18.9868C16.8109 18.6805 17.2827 18.3171 17.7136 17.8934C19.2522 16.4015 20.2084 14.3124 20.2084 12C20.2084 10.4159 19.7596 8.93658 18.9823 7.68226C18.6776 7.18565 18.3166 6.71729 17.8962 6.2893C16.4041 4.74905 14.3139 3.79166 12 3.79166C7.46668 3.79166 3.79169 7.46666 3.79169 12C3.79169 16.5333 7.46668 20.2083 12 20.2083C13.5811 20.2083 15.0577 19.7613 16.3104 18.9868ZM18.6856 9.29983C19.0227 10.1338 19.2084 11.0452 19.2084 12C19.2084 12.9575 19.0217 13.8715 18.6827 14.7074C17.7604 13.9327 16.8336 13.1587 15.9064 12.3897C15.9314 12.1344 15.9316 11.8773 15.9069 11.6226C16.8296 10.8466 17.7572 10.0709 18.6856 9.29983ZM17.1802 6.98742C17.5454 7.36477 17.8698 7.78189 18.1461 8.23167C18.1753 8.2797 18.2039 8.32806 18.2319 8.37674C17.3674 9.09418 16.5033 9.81576 15.643 10.5381C15.4517 10.0607 15.1635 9.61477 14.7785 9.22979C14.7511 9.20237 14.7233 9.17544 14.6953 9.14901C14.3285 8.803 13.9105 8.54104 13.4654 8.36332C14.1837 7.4988 14.906 6.635 15.6286 5.77532C16.1587 6.08214 16.6551 6.46228 17.1047 6.91189L17.1047 6.9119L17.1073 6.91442C17.1318 6.9386 17.1561 6.96293 17.1802 6.98742ZM9.22969 14.7786L9.21016 14.7589C8.83082 14.3765 8.54633 13.9346 8.3569 13.462C7.4968 14.1841 6.63286 14.9056 5.76846 15.6229C6.07502 16.152 6.45465 16.6476 6.90355 17.0965C7.35274 17.5456 7.84865 17.9255 8.37816 18.2321C9.09447 17.3729 9.81459 16.5058 10.5319 15.6406C10.0568 15.4493 9.61303 15.1619 9.22969 14.7786ZM12.435 14.8975C12.1485 14.9398 11.8573 14.9389 11.5719 14.8942C11.5469 14.8855 11.5211 14.8788 11.4945 14.8742C10.9238 14.7743 10.3688 14.5033 9.92855 14.0631L9.92122 14.0558C9.49018 13.6181 9.22445 13.0694 9.12576 12.5055L9.12577 12.5055L9.12524 12.5026C9.06765 12.1846 9.06486 11.8583 9.11612 11.5384C9.11999 11.524 9.12324 11.5094 9.12584 11.4945C9.16522 11.2695 9.23119 11.0469 9.32364 10.8329C9.4662 10.5076 9.6709 10.2028 9.9368 9.9369C10.6352 9.23853 11.6021 8.96228 12.5025 9.12533L12.5054 9.12584L12.5064 9.12603L12.5093 9.12652C13.0852 9.22664 13.6309 9.49649 14.0714 9.9369C14.5114 10.377 14.7823 10.9318 14.8823 11.5023C14.9351 11.8071 14.9393 12.119 14.8952 12.4252C14.886 12.4511 14.879 12.4779 14.8741 12.5055C14.7743 13.0762 14.5033 13.6312 14.0631 14.0715C13.622 14.5126 13.0751 14.7826 12.4982 14.8823C12.4766 14.886 12.4556 14.8911 12.435 14.8975ZM9.22978 9.22145C8.87532 9.5759 8.60327 9.98458 8.41324 10.4189C8.39612 10.4576 8.37966 10.4965 8.36385 10.5356C7.49724 9.81709 6.62854 9.0957 5.76786 8.37815C6.07452 7.84865 6.45436 7.35274 6.90355 6.90355C7.35244 6.45466 7.848 6.07503 8.37711 5.76847C9.09444 6.63288 9.81588 7.49682 10.5381 8.35692C10.0607 8.54821 9.61476 8.83646 9.22978 9.22145Z" fill="#5E6EFF"/>
<path d="M9.29988 5.31443L9.2624 5.22172C9.2328 5.23368 9.2107 5.25905 9.20291 5.29C9.19511 5.32096 9.20256 5.35377 9.22295 5.37832L9.29988 5.31443ZM14.7073 5.31732L14.7839 5.38164C14.8045 5.35714 14.8121 5.32427 14.8044 5.29322C14.7967 5.26216 14.7745 5.23668 14.7449 5.22465L14.7073 5.31732ZM12.3846 8.09958L12.3745 8.19907C12.4077 8.20243 12.4403 8.18907 12.4616 8.16342L12.3846 8.09958ZM11.6262 8.09743L11.5497 8.16179C11.5708 8.18694 11.603 8.2001 11.6357 8.19698L11.6262 8.09743ZM5.31379 9.3015L5.3778 9.22467C5.35326 9.20422 5.32041 9.19673 5.28943 9.20451C5.25844 9.21229 5.23304 9.23442 5.22107 9.26404L5.31379 9.3015ZM5.31444 14.7001L5.22173 14.7376C5.23369 14.7672 5.25906 14.7893 5.29002 14.7971C5.32097 14.8049 5.35378 14.7974 5.37834 14.777L5.31444 14.7001ZM8.09832 12.373L8.16268 12.4496C8.18792 12.4284 8.20107 12.3961 8.19784 12.3632L8.09832 12.373ZM8.09848 11.6145L8.198 11.6243C8.20125 11.5912 8.18787 11.5587 8.16229 11.5375L8.09848 11.6145ZM9.30149 18.6862L9.22467 18.6222C9.20421 18.6468 9.19672 18.6796 9.2045 18.7106C9.21229 18.7416 9.23441 18.767 9.26403 18.7789L9.30149 18.6862ZM14.7001 18.6856L14.7376 18.7783C14.7672 18.7663 14.7893 18.741 14.7971 18.71C14.8049 18.6791 14.7974 18.6462 14.777 18.6217L14.7001 18.6856ZM12.3809 15.911L12.4574 15.8467C12.4363 15.8215 12.4041 15.8084 12.3714 15.8115L12.3809 15.911ZM11.6097 15.9073L11.6201 15.8079C11.5869 15.8044 11.554 15.8177 11.5327 15.8435L11.6097 15.9073ZM15.762 18.15L15.8138 18.2355L15.8142 18.2353L15.762 18.15ZM17.015 17.1778L17.0846 17.2496L17.0852 17.2491L17.015 17.1778ZM15.6232 18.232L15.5463 18.2958C15.5774 18.3333 15.631 18.3429 15.6732 18.3186L15.6232 18.232ZM13.4655 15.6473L13.4282 15.5545C13.3984 15.5665 13.3762 15.5919 13.3684 15.623C13.3607 15.6541 13.3683 15.6871 13.3889 15.7116L13.4655 15.6473ZM14.7785 14.7786L14.7078 14.7079L14.7078 14.7079L14.7785 14.7786ZM15.6428 13.4705L15.7067 13.3936C15.6821 13.3731 15.6492 13.3657 15.6182 13.3735C15.5872 13.3814 15.5618 13.4036 15.5499 13.4333L15.6428 13.4705ZM18.2247 15.6287L18.3112 15.6788C18.3355 15.6368 18.3262 15.5834 18.289 15.5521L18.2247 15.6287ZM17.0881 17.1048L17.0174 17.0341L17.0171 17.0343L17.0881 17.1048ZM17.0856 17.1073L17.0146 17.0369L17.0143 17.0371L17.0856 17.1073ZM16.3104 18.9868L16.2582 18.9015L16.2579 18.9018L16.3104 18.9868ZM17.7136 17.8934L17.644 17.8216L17.6435 17.8221L17.7136 17.8934ZM18.9823 7.68226L18.8971 7.73456L18.8973 7.73494L18.9823 7.68226ZM17.8962 6.2893L17.8244 6.35888L17.8248 6.35938L17.8962 6.2893ZM18.6856 9.29983L18.7783 9.26235C18.7663 9.23276 18.741 9.21066 18.71 9.20286C18.6791 9.19507 18.6462 9.20252 18.6217 9.22291L18.6856 9.29983ZM18.6827 14.7074L18.6183 14.7839C18.6428 14.8045 18.6757 14.8121 18.7068 14.8044C18.7378 14.7967 18.7633 14.7746 18.7753 14.7449L18.6827 14.7074ZM15.9064 12.3897L15.8069 12.3799C15.8036 12.4129 15.817 12.4454 15.8426 12.4666L15.9064 12.3897ZM15.9069 11.6226L15.8425 11.546C15.8173 11.5672 15.8041 11.5995 15.8073 11.6322L15.9069 11.6226ZM18.1461 8.23167L18.2316 8.17974L18.2313 8.17932L18.1461 8.23167ZM17.1802 6.98742L17.2521 6.91788L17.2515 6.91731L17.1802 6.98742ZM18.2319 8.37674L18.2958 8.45369C18.3333 8.42259 18.3429 8.36902 18.3186 8.32683L18.2319 8.37674ZM15.643 10.5381L15.5502 10.5753C15.5622 10.605 15.5876 10.6273 15.6187 10.6351C15.6498 10.6429 15.6828 10.6353 15.7073 10.6146L15.643 10.5381ZM14.7785 9.22979L14.7078 9.3005L14.7078 9.3005L14.7785 9.22979ZM14.6953 9.14901L14.6267 9.22175L14.6267 9.22179L14.6953 9.14901ZM13.4654 8.36332L13.3885 8.29941C13.368 8.32402 13.3606 8.35693 13.3685 8.38795C13.3763 8.41896 13.3986 8.44433 13.4283 8.45619L13.4654 8.36332ZM15.6286 5.77532L15.6787 5.68878C15.6367 5.66446 15.5833 5.67382 15.5521 5.71098L15.6286 5.77532ZM17.1047 6.91189L17.1736 6.98439C17.1932 6.96582 17.2044 6.94014 17.2047 6.91317C17.2051 6.88621 17.1945 6.86025 17.1754 6.84118L17.1047 6.91189ZM17.1047 6.9119L17.0358 6.8394C17.0162 6.85806 17.005 6.88389 17.0047 6.91098C17.0045 6.93807 17.0152 6.96411 17.0345 6.98312L17.1047 6.9119ZM17.1073 6.91442L17.1775 6.84321L17.1775 6.8432L17.1073 6.91442ZM9.21016 14.7589L9.13917 14.8293L9.1392 14.8294L9.21016 14.7589ZM9.22969 14.7786L9.15873 14.849L9.15898 14.8493L9.22969 14.7786ZM8.3569 13.462L8.44972 13.4247C8.4378 13.395 8.41232 13.3727 8.38121 13.365C8.35011 13.3572 8.31715 13.3647 8.2926 13.3854L8.3569 13.462ZM5.76846 15.6229L5.7046 15.5459C5.66705 15.5771 5.65747 15.6308 5.68193 15.673L5.76846 15.6229ZM6.90355 17.0965L6.97426 17.0258L6.97426 17.0258L6.90355 17.0965ZM8.37816 18.2321L8.32804 18.3187C8.37018 18.3431 8.42378 18.3336 8.45497 18.2962L8.37816 18.2321ZM10.5319 15.6406L10.6088 15.7045C10.6292 15.6799 10.6366 15.6471 10.6288 15.6161C10.621 15.5852 10.5988 15.5598 10.5692 15.5479L10.5319 15.6406ZM11.5719 14.8942L11.5392 14.9887C11.5448 14.9906 11.5506 14.9921 11.5564 14.993L11.5719 14.8942ZM12.435 14.8975L12.4496 14.9964C12.4547 14.9957 12.4597 14.9945 12.4647 14.993L12.435 14.8975ZM11.4945 14.8742L11.4773 14.9727L11.4773 14.9727L11.4945 14.8742ZM9.92855 14.0631L9.85771 14.1337L9.85784 14.1338L9.92855 14.0631ZM9.92122 14.0558L9.84997 14.1259L9.85038 14.1263L9.92122 14.0558ZM9.12576 12.5055L9.10407 12.4079C9.05188 12.4195 9.01804 12.4701 9.02726 12.5227L9.12576 12.5055ZM9.12577 12.5055L9.14746 12.6031C9.19987 12.5914 9.23373 12.5405 9.22417 12.4877L9.12577 12.5055ZM9.12524 12.5026L9.22364 12.4848L9.22364 12.4847L9.12524 12.5026ZM9.11612 11.5384L9.01903 11.5123L9.01738 11.5226L9.11612 11.5384ZM9.12584 11.4945L9.02734 11.4773L9.02734 11.4773L9.12584 11.4945ZM9.32364 10.8329L9.23205 10.7927L9.23183 10.7932L9.32364 10.8329ZM9.9368 9.9369L10.0075 10.0076L10.0075 10.0076L9.9368 9.9369ZM12.5025 9.12533L12.4847 9.22373L12.4854 9.22386L12.5025 9.12533ZM12.5054 9.12584L12.5239 9.02755L12.5225 9.02731L12.5054 9.12584ZM12.5064 9.12603L12.488 9.22432L12.4893 9.22456L12.5064 9.12603ZM12.5093 9.12652L12.5264 9.028L12.5264 9.02799L12.5093 9.12652ZM14.0714 9.9369L14.0006 10.0076L14.0006 10.0076L14.0714 9.9369ZM14.8823 11.5023L14.9808 11.4852L14.9808 11.485L14.8823 11.5023ZM14.8952 12.4252L14.9895 12.4585C14.9916 12.4523 14.9932 12.4459 14.9942 12.4395L14.8952 12.4252ZM14.8741 12.5055L14.9726 12.5227L14.9726 12.5227L14.8741 12.5055ZM14.0631 14.0715L14.1338 14.1422L14.1338 14.1422L14.0631 14.0715ZM12.4982 14.8823L12.5152 14.9808L12.5152 14.9808L12.4982 14.8823ZM8.41324 10.4189L8.50469 10.4593L8.50486 10.4589L8.41324 10.4189ZM9.22978 9.22145L9.30049 9.29216L9.30049 9.29216L9.22978 9.22145ZM8.36385 10.5356L8.30003 10.6126C8.32459 10.6329 8.35739 10.6404 8.38833 10.6325C8.41926 10.6247 8.44462 10.6026 8.45657 10.5731L8.36385 10.5356ZM5.76786 8.37815L5.68132 8.32804C5.65691 8.37018 5.66641 8.42378 5.70382 8.45496L5.76786 8.37815ZM6.90355 6.90355L6.83284 6.83284L6.83284 6.83284L6.90355 6.90355ZM8.37711 5.76847L8.45407 5.70461C8.42291 5.66707 8.3692 5.65749 8.32698 5.68195L8.37711 5.76847ZM10.5381 8.35692L10.5753 8.44974C10.605 8.43781 10.6273 8.41233 10.6351 8.38123C10.6429 8.35013 10.6353 8.31717 10.6146 8.29261L10.5381 8.35692ZM12 4.69166C11.0322 4.69166 10.108 4.87985 9.2624 5.22172L9.33736 5.40714C10.1596 5.07474 11.0583 4.89166 12 4.89166V4.69166ZM14.7449 5.22465C13.8973 4.88093 12.9706 4.69166 12 4.69166V4.89166C12.9444 4.89166 13.8456 5.07578 14.6697 5.40999L14.7449 5.22465ZM14.6307 5.253C13.8543 6.17739 13.0785 7.10637 12.3077 8.03574L12.4616 8.16342C13.2322 7.23439 14.0077 6.30573 14.7839 5.38164L14.6307 5.253ZM12.3947 8.00009C12.1361 7.97383 11.8754 7.9732 11.6167 7.99788L11.6357 8.19698C11.8814 8.17353 12.129 8.17414 12.3745 8.19907L12.3947 8.00009ZM11.7027 8.03306C10.9256 7.10906 10.1489 6.18014 9.3768 5.25054L9.22295 5.37832C9.99535 6.30827 10.7723 7.2375 11.5497 8.16179L11.7027 8.03306ZM5.22107 9.26404C4.87963 10.1092 4.69169 11.0328 4.69169 12H4.89169C4.89169 11.0589 5.07452 10.1608 5.40651 9.33895L5.22107 9.26404ZM4.69169 12C4.69169 12.9678 4.87987 13.892 5.22173 14.7376L5.40715 14.6626C5.07476 13.8404 4.89169 12.9417 4.89169 12H4.69169ZM8.03396 12.2965C7.10966 13.0739 6.18045 13.8508 5.25055 14.6232L5.37834 14.777C6.30858 14.0044 7.2381 13.2272 8.16268 12.4496L8.03396 12.2965ZM7.99896 11.6047C7.97348 11.8634 7.97333 12.1241 7.9988 12.3828L8.19784 12.3632C8.17366 12.1176 8.1738 11.87 8.198 11.6243L7.99896 11.6047ZM5.24977 9.37832C6.17418 10.1486 7.10671 10.9225 8.03467 11.6915L8.16229 11.5375C7.23439 10.7685 6.30202 9.99476 5.3778 9.22467L5.24977 9.37832ZM9.26403 18.7789C10.1092 19.1204 11.0328 19.3083 12 19.3083V19.1083C11.0589 19.1083 10.1608 18.9255 9.33895 18.5935L9.26403 18.7789ZM12 19.3083C12.9678 19.3083 13.892 19.1202 14.7376 18.7783L14.6626 18.5929C13.8404 18.9253 12.9417 19.1083 12 19.1083V19.3083ZM12.3043 15.9754C13.0791 16.8966 13.8534 17.8227 14.6232 18.7495L14.777 18.6217C14.007 17.6946 13.2324 16.7682 12.4574 15.8467L12.3043 15.9754ZM11.5992 16.0068C11.8622 16.0344 12.1273 16.0356 12.3903 16.0106L12.3714 15.8115C12.1215 15.8352 11.8698 15.8341 11.6201 15.8079L11.5992 16.0068ZM9.37832 18.7502C10.147 17.8277 10.9192 16.8972 11.6867 15.9711L11.5327 15.8435C10.7653 16.7695 9.99315 17.6999 9.22467 18.6222L9.37832 18.7502ZM15.8142 18.2353C16.2737 17.9536 16.6996 17.6226 17.0846 17.2496L16.9455 17.106C16.5709 17.4688 16.1566 17.7908 15.7097 18.0648L15.8142 18.2353ZM15.7101 18.0645C15.6648 18.092 15.6192 18.1189 15.5733 18.1453L15.6732 18.3186C15.7203 18.2915 15.7672 18.2638 15.8138 18.2355L15.7101 18.0645ZM15.7002 18.1681C14.9838 17.3048 14.2633 16.442 13.542 15.583L13.3889 15.7116C14.1099 16.5703 14.8301 17.4329 15.5463 18.2958L15.7002 18.1681ZM13.5027 15.7401C13.9939 15.5428 14.4535 15.245 14.8492 14.8493L14.7078 14.7079C14.3314 15.0842 13.8947 15.3671 13.4282 15.5545L13.5027 15.7401ZM14.8492 14.8493C15.2442 14.4543 15.5396 13.9963 15.7356 13.5077L15.5499 13.4333C15.3638 13.8974 15.0832 14.3324 14.7078 14.7079L14.8492 14.8493ZM15.5788 13.5474C16.4412 14.264 17.3028 14.9844 18.1603 15.7052L18.289 15.5521C17.4312 14.831 16.5693 14.1104 15.7067 13.3936L15.5788 13.5474ZM18.1381 15.5786C17.8357 16.1011 17.4609 16.5906 17.0174 17.0341L17.1588 17.1755C17.6145 16.7198 18 16.2164 18.3112 15.6788L18.1381 15.5786ZM17.0171 17.0343L17.0146 17.0369L17.1565 17.1778L17.1591 17.1752L17.0171 17.0343ZM17.0143 17.0371C16.9913 17.0605 16.9682 17.0836 16.9449 17.1066L17.0852 17.2491C17.1092 17.2254 17.1331 17.2016 17.1568 17.1775L17.0143 17.0371ZM16.3626 19.0721C16.8693 18.762 17.3472 18.3939 17.7837 17.9647L17.6435 17.8221C17.2183 18.2402 16.7525 18.599 16.2582 18.9015L16.3626 19.0721ZM20.1084 12C20.1084 14.2842 19.1639 16.3477 17.644 17.8216L17.7832 17.9652C19.3404 16.4552 20.3084 14.3406 20.3084 12H20.1084ZM18.8973 7.73494C19.6651 8.97389 20.1084 10.435 20.1084 12H20.3084C20.3084 10.3967 19.8541 8.89927 19.0673 7.62959L18.8973 7.73494ZM19.0676 7.62996C18.7591 7.12722 18.3935 6.65284 17.9675 6.21922L17.8248 6.35938C18.2397 6.78174 18.5961 7.24408 18.8971 7.73456L19.0676 7.62996ZM12 3.89166C14.2857 3.89166 16.3503 4.83727 17.8244 6.35888L17.968 6.21972C16.4579 4.66083 14.342 3.69166 12 3.69166V3.89166ZM3.89169 12C3.89169 7.52189 7.52191 3.89166 12 3.89166V3.69166C7.41145 3.69166 3.69169 7.41143 3.69169 12H3.89169ZM12 20.1083C7.52191 20.1083 3.89169 16.4781 3.89169 12H3.69169C3.69169 16.5886 7.41145 20.3083 12 20.3083V20.1083ZM16.2579 18.9018C15.0204 19.6668 13.562 20.1083 12 20.1083V20.3083C13.6002 20.3083 15.0949 19.8559 16.363 19.0719L16.2579 18.9018ZM19.3084 12C19.3084 11.0322 19.1202 10.108 18.7783 9.26235L18.5929 9.33731C18.9253 10.1596 19.1084 11.0583 19.1084 12H19.3084ZM18.7753 14.7449C19.1191 13.8973 19.3084 12.9706 19.3084 12H19.1084C19.1084 12.9444 18.9242 13.8456 18.59 14.6698L18.7753 14.7449ZM18.747 14.6308C17.8246 13.856 16.8976 13.0819 15.9702 12.3127L15.8426 12.4666C16.7696 13.2356 17.6962 14.0094 18.6183 14.7839L18.747 14.6308ZM16.0059 12.3994C16.0316 12.1377 16.0317 11.8742 16.0064 11.6129L15.8073 11.6322C15.8314 11.8805 15.8313 12.1311 15.8069 12.3799L16.0059 12.3994ZM15.9712 11.6991C16.8938 10.9232 17.8213 10.1477 18.7495 9.37676L18.6217 9.22291C17.6932 9.99412 16.7654 10.7699 15.8425 11.546L15.9712 11.6991ZM18.2313 8.17932C17.9511 7.7233 17.6223 7.30042 17.2521 6.91788L17.1083 7.05697C17.4685 7.42911 17.7884 7.84048 18.0609 8.28402L18.2313 8.17932ZM18.0607 8.2836C18.0894 8.33096 18.1176 8.37864 18.1453 8.42664L18.3186 8.32683C18.2902 8.27748 18.2612 8.22845 18.2316 8.17974L18.0607 8.2836ZM18.1681 8.29978C17.3034 9.01736 16.4391 9.73906 15.5787 10.4615L15.7073 10.6146C16.5675 9.89246 17.4314 9.17101 18.2958 8.45369L18.1681 8.29978ZM15.7359 10.5009C15.5396 10.0112 15.2439 9.5538 14.8492 9.15908L14.7078 9.3005C15.083 9.67574 15.3639 10.1102 15.5502 10.5753L15.7359 10.5009ZM14.8492 9.15908C14.8211 9.13095 14.7926 9.10334 14.7639 9.07622L14.6267 9.22179C14.654 9.24755 14.6811 9.27378 14.7078 9.3005L14.8492 9.15908ZM14.7639 9.07626C14.3878 8.72146 13.9591 8.45274 13.5025 8.27045L13.4283 8.45619C13.862 8.62933 14.2692 8.88454 14.6267 9.22175L14.7639 9.07626ZM13.5423 8.42723C14.2605 7.56286 14.9826 6.69921 15.7052 5.83967L15.5521 5.71098C14.8293 6.57079 14.107 7.43473 13.3885 8.29941L13.5423 8.42723ZM15.5785 5.86187C16.101 6.1643 16.5905 6.5391 17.034 6.9826L17.1754 6.84118C16.7197 6.38545 16.2164 5.99999 15.6787 5.68878L15.5785 5.86187ZM17.0359 6.83939L17.0358 6.8394L17.1736 6.9844L17.1736 6.98439L17.0359 6.83939ZM17.0345 6.98312L17.0371 6.98565L17.1775 6.8432L17.1749 6.84067L17.0345 6.98312ZM17.0371 6.98564C17.0612 7.00945 17.0852 7.03342 17.1089 7.05754L17.2515 6.91731C17.2271 6.89245 17.2024 6.86774 17.1775 6.84321L17.0371 6.98564ZM9.1392 14.8294L9.15873 14.849L9.30065 14.7081L9.28112 14.6884L9.1392 14.8294ZM8.26408 13.4992C8.45839 13.984 8.75023 14.4372 9.13917 14.8293L9.28115 14.6885C8.91142 14.3158 8.63427 13.8852 8.44972 13.4247L8.26408 13.4992ZM5.83232 15.6998C6.69688 14.9824 7.56097 14.2608 8.4212 13.5385L8.2926 13.3854C7.43264 14.1074 6.56884 14.8287 5.7046 15.5459L5.83232 15.6998ZM6.97426 17.0258C6.53147 16.583 6.15716 16.0943 5.85499 15.5728L5.68193 15.673C5.99288 16.2097 6.37784 16.7122 6.83284 17.1672L6.97426 17.0258ZM8.42828 18.1456C7.90634 17.8433 7.41734 17.4688 6.97426 17.0258L6.83284 17.1672C7.28813 17.6225 7.79096 18.0076 8.32804 18.3187L8.42828 18.1456ZM10.4549 15.5768C9.73764 16.4419 9.01758 17.309 8.30135 18.1681L8.45497 18.2962C9.17135 17.4369 9.89154 16.5696 10.6088 15.7045L10.4549 15.5768ZM9.15898 14.8493C9.55202 15.2423 10.0072 15.5372 10.4945 15.7334L10.5692 15.5479C10.1064 15.3615 9.67404 15.0815 9.3004 14.7079L9.15898 14.8493ZM11.5564 14.993C11.8519 15.0393 12.1533 15.0402 12.4496 14.9964L12.4204 14.7986C12.1438 14.8394 11.8627 14.8385 11.5874 14.7954L11.5564 14.993ZM11.4773 14.9727C11.4985 14.9764 11.5192 14.9818 11.5392 14.9887L11.6046 14.7997C11.5746 14.7893 11.5436 14.7812 11.5118 14.7757L11.4773 14.9727ZM9.85784 14.1338C10.3133 14.5893 10.8874 14.8694 11.4773 14.9727L11.5118 14.7757C10.9603 14.6791 10.4242 14.4173 9.99926 13.9924L9.85784 14.1338ZM9.85038 14.1263L9.85771 14.1337L9.99939 13.9925L9.99206 13.9852L9.85038 14.1263ZM9.02726 12.5227C9.12927 13.1056 9.40397 13.6731 9.84997 14.1259L9.99247 13.9856C9.5764 13.5631 9.31963 13.0332 9.22426 12.4882L9.02726 12.5227ZM9.10407 12.4079L9.10407 12.4079L9.14745 12.6031L9.14746 12.6031L9.10407 12.4079ZM9.02684 12.5204L9.02737 12.5233L9.22417 12.4877L9.22364 12.4848L9.02684 12.5204ZM9.01738 11.5226C8.96435 11.8535 8.96722 12.1912 9.02684 12.5204L9.22364 12.4847C9.16809 12.178 9.16537 11.8631 9.21486 11.5542L9.01738 11.5226ZM9.02734 11.4773C9.02526 11.4892 9.02266 11.5009 9.01956 11.5124L9.21268 11.5644C9.21733 11.5471 9.22123 11.5296 9.22435 11.5118L9.02734 11.4773ZM9.23183 10.7932C9.13625 11.0146 9.06805 11.2447 9.02734 11.4773L9.22435 11.5118C9.26239 11.2944 9.32613 11.0793 9.41544 10.8725L9.23183 10.7932ZM9.86609 9.86619C9.59127 10.141 9.37954 10.4562 9.23205 10.7927L9.41523 10.873C9.55287 10.559 9.75054 10.2646 10.0075 10.0076L9.86609 9.86619ZM12.5203 9.02693C11.5884 8.85815 10.5881 9.14417 9.86609 9.86619L10.0075 10.0076C10.6822 9.3329 11.6159 9.0664 12.4847 9.22373L12.5203 9.02693ZM12.5225 9.02731L12.5196 9.0268L12.4854 9.22386L12.4884 9.22437L12.5225 9.02731ZM12.5249 9.02775L12.5239 9.02756L12.487 9.22412L12.488 9.22431L12.5249 9.02775ZM12.5264 9.02799L12.5235 9.0275L12.4893 9.22456L12.4922 9.22505L12.5264 9.02799ZM14.1421 9.86619C13.6866 9.4107 13.1219 9.13152 12.5264 9.028L12.4921 9.22505C13.0485 9.32176 13.5753 9.58228 14.0006 10.0076L14.1421 9.86619ZM14.9808 11.485C14.8775 10.8953 14.5974 10.3215 14.1421 9.86619L14.0006 10.0076C14.4254 10.4324 14.6872 10.9682 14.7838 11.5195L14.9808 11.485ZM14.9942 12.4395C15.0398 12.1229 15.0354 11.8005 14.9808 11.4852L14.7838 11.5193C14.8347 11.8138 14.8389 12.1151 14.7962 12.4109L14.9942 12.4395ZM14.9726 12.5227C14.9765 12.5006 14.9822 12.4792 14.9895 12.4585L14.8009 12.3919C14.7899 12.423 14.7814 12.4552 14.7756 12.4882L14.9726 12.5227ZM14.1338 14.1422C14.5893 13.6867 14.8694 13.1126 14.9726 12.5227L14.7756 12.4882C14.6791 13.0398 14.4173 13.5758 13.9924 14.0007L14.1338 14.1422ZM12.5152 14.9808C13.1118 14.8777 13.6776 14.5984 14.1338 14.1422L13.9924 14.0007C13.5664 14.4268 13.0385 14.6874 12.4811 14.7838L12.5152 14.9808ZM12.4647 14.993C12.4811 14.9879 12.498 14.9838 12.5152 14.9808L12.4811 14.7838C12.4553 14.7882 12.43 14.7943 12.4054 14.802L12.4647 14.993ZM8.50486 10.4589C8.69007 10.0357 8.95516 9.63748 9.30049 9.29216L9.15906 9.15074C8.79549 9.51432 8.51648 9.93349 8.32163 10.3788L8.50486 10.4589ZM8.45657 10.5731C8.47197 10.5349 8.48801 10.497 8.50469 10.4593L8.32179 10.3784C8.30423 10.4181 8.28735 10.458 8.27114 10.4981L8.45657 10.5731ZM5.70382 8.45496C6.5646 9.17259 7.43337 9.89405 8.30003 10.6126L8.42768 10.4586C7.5611 9.74014 6.69248 9.01881 5.83189 8.30135L5.70382 8.45496ZM6.83284 6.83284C6.37754 7.28813 5.99238 7.79096 5.68132 8.32804L5.85439 8.42827C6.15667 7.90634 6.53118 7.41734 6.97426 6.97426L6.83284 6.83284ZM8.32698 5.68195C7.7903 5.99289 7.28783 6.37784 6.83284 6.83284L6.97426 6.97426C7.41705 6.53147 7.9057 6.15718 8.42725 5.855L8.32698 5.68195ZM10.6146 8.29261C9.89258 7.43265 9.17126 6.56886 8.45407 5.70461L8.30016 5.83233C9.01762 6.69689 9.73918 7.56099 10.4615 8.42122L10.6146 8.29261ZM9.30049 9.29216C9.67573 8.91692 10.1102 8.6361 10.5753 8.44974L10.5009 8.26409C10.0112 8.46032 9.55379 8.75601 9.15906 9.15074L9.30049 9.29216Z" fill="#5E6EFF"/>
</svg>
