<svg width="121" height="46" viewBox="0 0 121 46" fill="none" xmlns="http://www.w3.org/2000/svg">
<path fill-rule="evenodd" clip-rule="evenodd" d="M57.2616 5.5C56.4073 5.5 55.6867 5.79838 55.1 6.39532C54.5127 6.99226 54.2196 7.7153 54.2196 8.56406C54.2196 9.41337 54.5127 10.1295 55.1 10.7127C55.6867 11.2966 56.4073 11.5881 57.2616 11.5881C58.1152 11.5881 58.8358 11.2966 59.4229 10.7127C60.0098 10.1295 60.3035 9.41337 60.3035 8.56406C60.3035 7.7153 60.0098 6.99226 59.4229 6.39532C58.8358 5.79838 58.1152 5.5 57.2616 5.5ZM109.493 19.4948C109.04 18.4361 108.46 17.602 107.755 16.9927C107.049 16.384 106.283 15.9601 105.458 15.7218C104.632 15.4836 103.86 15.3644 103.141 15.3644C102.608 15.3644 102.055 15.4247 101.483 15.545C100.91 15.6653 100.357 15.8523 99.8249 16.1054C99.2916 16.3592 98.7992 16.6793 98.3465 17.0666C97.8935 17.4538 97.5077 17.9005 97.188 18.4076C96.815 17.8207 96.3955 17.3335 95.9297 16.9462C95.8333 16.8661 95.7354 16.7911 95.6372 16.7172V16.7253C95.0245 16.259 94.3697 15.9233 93.6721 15.7218C92.8462 15.4836 92.074 15.3644 91.3549 15.3644C90.8219 15.3644 90.2695 15.4247 89.6969 15.545C89.1238 15.6653 88.5714 15.8523 88.0391 16.1054C87.506 16.3592 87.0132 16.6793 86.5607 17.0666C86.1077 17.4538 85.7221 17.9005 85.4022 18.4076C85.029 17.8207 84.6095 17.3335 84.1439 16.9462C84.0475 16.8661 83.9496 16.7911 83.8514 16.7172C83.4749 16.4344 83.0869 16.196 82.6856 16.0054C82.1795 15.7653 81.66 15.5983 81.1276 15.5048C80.5946 15.4117 80.0889 15.3644 79.6094 15.3644C78.6769 15.3644 77.8049 15.5251 76.9928 15.8452C76.18 16.1657 75.4678 16.6192 74.8555 17.2063L74.0564 15.3644H69.3422V35.0631H74.8555V24.6459C74.8555 23.141 75.1611 22.0322 75.7744 21.3192C76.3867 20.6063 77.0788 20.2494 77.8517 20.2494C78.9167 20.2494 79.7293 20.5666 80.2886 21.2001C80.8479 21.8342 81.1276 22.9562 81.1276 24.5666V35.0631H83.8514H86.6408V24.5274C86.6408 23.6823 86.727 22.9828 86.9003 22.4282C87.0734 21.8733 87.3061 21.4378 87.5995 21.1206C87.8924 20.8041 88.225 20.5795 88.5984 20.4474C88.971 20.3157 89.3435 20.2494 89.717 20.2494C90.1164 20.2494 90.509 20.3218 90.8953 20.4671C91.2811 20.6124 91.6208 20.8568 91.914 21.2001C92.2069 21.544 92.4398 21.9925 92.6133 22.5467C92.7862 23.1015 92.873 23.7747 92.873 24.5666V35.0631H95.6372H98.3863H98.4265V24.5274C98.4265 23.6823 98.5127 22.9828 98.6862 22.4282C98.859 21.8733 99.0921 21.4378 99.3853 21.1206C99.6783 20.8041 100.011 20.5795 100.384 20.4474C100.757 20.3157 101.129 20.2494 101.503 20.2494C101.902 20.2494 102.295 20.3218 102.681 20.4671C103.067 20.6124 103.407 20.8568 103.7 21.2001C103.993 21.544 104.226 21.9925 104.399 22.5467C104.572 23.1015 104.659 23.7747 104.659 24.5666V35.0631H110.172V23.5457C110.172 21.9043 109.945 20.5541 109.493 19.4948ZM62.454 24.0793L61.6425 21.2789L59.9285 15.3645H54.2554L57.2461 25.2616L60.208 35.0631H65.6649L64.0903 29.6766L64.0834 29.7014L62.454 24.0793ZM42.1997 15.3644L38.2048 29.622L34.0899 15.3644H28.4169L34.3696 35.063H41.321L44.1972 25.5712L44.5169 22.7515L44.7964 25.5712L47.6729 35.063H49.2076L50.7821 29.6766L46.794 15.3644H42.1997ZM22.3659 23.784C23.0449 24.049 23.6374 24.3668 24.1437 24.7371C25.6081 25.7698 26.3409 27.2392 26.3409 29.1454C26.3409 30.0192 26.1343 30.8402 25.7217 31.6078C25.3085 32.3762 24.743 33.0512 24.0237 33.6333C23.3046 34.2161 22.4658 34.6726 21.507 35.0034C20.5483 35.3342 19.5224 35.5 18.4308 35.5C17.6049 35.5 16.799 35.3938 16.0138 35.1822C15.2278 34.9706 14.5019 34.6795 13.8366 34.3085C13.1703 33.938 12.5911 33.4943 12.0985 32.978C11.6054 32.4617 11.2396 31.8857 11 31.2504C11.6123 30.9594 12.2915 30.6348 13.0374 30.2775C13.7828 29.9199 14.4358 29.596 14.9951 29.3043C15.2347 29.7016 15.6074 30.0657 16.1136 30.3966C16.6194 30.7279 17.3122 30.893 18.191 30.893C19.0962 30.893 19.7623 30.6813 20.1885 30.2576C20.6142 29.8342 20.8278 29.4371 20.8278 29.0661C20.8278 28.8018 20.6811 28.5566 20.3882 28.3314C20.0948 28.1068 19.7623 27.928 19.3896 27.7952C18.8565 27.5836 18.417 27.4713 18.0713 27.4577C17.7248 27.4446 17.3253 27.372 16.8728 27.2392C15.4344 26.8955 14.3359 26.4388 13.5769 25.869C12.8178 25.3 12.2646 24.7241 11.9189 24.1414C11.5724 23.5594 11.3794 23.0034 11.3395 22.4734C11.2996 21.9441 11.2797 21.5203 11.2797 21.2026C11.2797 20.3554 11.4658 19.5482 11.8388 18.78C12.2115 18.0122 12.7242 17.3439 13.3771 16.7743C14.0294 16.2053 14.7884 15.7486 15.6544 15.4042C16.5195 15.0603 17.4451 14.8878 18.4308 14.8878C19.256 14.8878 20.042 15.007 20.7877 15.2453C21.5331 15.4835 22.2121 15.8149 22.8253 16.2381C23.4377 16.662 23.9638 17.1653 24.4033 17.7474C24.8427 18.33 25.1686 18.9784 25.382 19.6935L21.1075 21.123C20.9477 20.6464 20.6212 20.263 20.1286 19.9714C19.6354 19.6804 19.1098 19.5346 18.5505 19.5346C17.9913 19.5346 17.538 19.7201 17.1921 20.0906C16.8459 20.4616 16.6729 20.8321 16.6729 21.2026C16.6729 21.6531 16.839 22.0037 17.1725 22.255C17.5049 22.5068 17.8715 22.6856 18.271 22.791C18.5637 22.8445 18.8503 22.8905 19.1299 22.9302C19.4094 22.9698 19.6823 23.0162 19.9489 23.0691C20.8808 23.2813 21.6867 23.5197 22.3659 23.784Z" fill="white"/>
<path fill-rule="evenodd" clip-rule="evenodd" d="M57.2616 5.5C56.4073 5.5 55.6867 5.79838 55.1 6.39532C54.5127 6.99226 54.2196 7.7153 54.2196 8.56406C54.2196 9.41337 54.5127 10.1295 55.1 10.7127C55.6867 11.2966 56.4073 11.5881 57.2616 11.5881C58.1152 11.5881 58.8358 11.2966 59.4229 10.7127C60.0098 10.1295 60.3035 9.41337 60.3035 8.56406C60.3035 7.7153 60.0098 6.99226 59.4229 6.39532C58.8358 5.79838 58.1152 5.5 57.2616 5.5ZM109.493 19.4948C109.04 18.4361 108.46 17.602 107.755 16.9927C107.049 16.384 106.283 15.9601 105.458 15.7218C104.632 15.4836 103.86 15.3644 103.141 15.3644C102.608 15.3644 102.055 15.4247 101.483 15.545C100.91 15.6653 100.357 15.8523 99.8249 16.1054C99.2916 16.3592 98.7992 16.6793 98.3465 17.0666C97.8935 17.4538 97.5077 17.9005 97.188 18.4076C96.815 17.8207 96.3955 17.3335 95.9297 16.9462C95.8333 16.8661 95.7354 16.7911 95.6372 16.7172V16.7253C95.0245 16.259 94.3697 15.9233 93.6721 15.7218C92.8462 15.4836 92.074 15.3644 91.3549 15.3644C90.8219 15.3644 90.2695 15.4247 89.6969 15.545C89.1238 15.6653 88.5714 15.8523 88.0391 16.1054C87.506 16.3592 87.0132 16.6793 86.5607 17.0666C86.1077 17.4538 85.7221 17.9005 85.4022 18.4076C85.029 17.8207 84.6095 17.3335 84.1439 16.9462C84.0475 16.8661 83.9496 16.7911 83.8514 16.7172C83.4749 16.4344 83.0869 16.196 82.6856 16.0054C82.1795 15.7653 81.66 15.5983 81.1276 15.5048C80.5946 15.4117 80.0889 15.3644 79.6094 15.3644C78.6769 15.3644 77.8049 15.5251 76.9928 15.8452C76.18 16.1657 75.4678 16.6192 74.8555 17.2063L74.0564 15.3644H69.3422V35.0631H74.8555V24.6459C74.8555 23.141 75.1611 22.0322 75.7744 21.3192C76.3867 20.6063 77.0788 20.2494 77.8517 20.2494C78.9167 20.2494 79.7293 20.5666 80.2886 21.2001C80.8479 21.8342 81.1276 22.9562 81.1276 24.5666V35.0631H83.8514H86.6408V24.5274C86.6408 23.6823 86.727 22.9828 86.9003 22.4282C87.0734 21.8733 87.3061 21.4378 87.5995 21.1206C87.8924 20.8041 88.225 20.5795 88.5984 20.4474C88.971 20.3157 89.3435 20.2494 89.717 20.2494C90.1164 20.2494 90.509 20.3218 90.8953 20.4671C91.2811 20.6124 91.6208 20.8568 91.914 21.2001C92.2069 21.544 92.4398 21.9925 92.6133 22.5467C92.7862 23.1015 92.873 23.7747 92.873 24.5666V35.0631H95.6372H98.3863H98.4265V24.5274C98.4265 23.6823 98.5127 22.9828 98.6862 22.4282C98.859 21.8733 99.0921 21.4378 99.3853 21.1206C99.6783 20.8041 100.011 20.5795 100.384 20.4474C100.757 20.3157 101.129 20.2494 101.503 20.2494C101.902 20.2494 102.295 20.3218 102.681 20.4671C103.067 20.6124 103.407 20.8568 103.7 21.2001C103.993 21.544 104.226 21.9925 104.399 22.5467C104.572 23.1015 104.659 23.7747 104.659 24.5666V35.0631H110.172V23.5457C110.172 21.9043 109.945 20.5541 109.493 19.4948ZM62.454 24.0793L61.6425 21.2789L59.9285 15.3645H54.2554L57.2461 25.2616L60.208 35.0631H65.6649L64.0903 29.6766L64.0834 29.7014L62.454 24.0793ZM42.1997 15.3644L38.2048 29.622L34.0899 15.3644H28.4169L34.3696 35.063H41.321L44.1972 25.5712L44.5169 22.7515L44.7964 25.5712L47.6729 35.063H49.2076L50.7821 29.6766L46.794 15.3644H42.1997ZM22.3659 23.784C23.0449 24.049 23.6374 24.3668 24.1437 24.7371C25.6081 25.7698 26.3409 27.2392 26.3409 29.1454C26.3409 30.0192 26.1343 30.8402 25.7217 31.6078C25.3085 32.3762 24.743 33.0512 24.0237 33.6333C23.3046 34.2161 22.4658 34.6726 21.507 35.0034C20.5483 35.3342 19.5224 35.5 18.4308 35.5C17.6049 35.5 16.799 35.3938 16.0138 35.1822C15.2278 34.9706 14.5019 34.6795 13.8366 34.3085C13.1703 33.938 12.5911 33.4943 12.0985 32.978C11.6054 32.4617 11.2396 31.8857 11 31.2504C11.6123 30.9594 12.2915 30.6348 13.0374 30.2775C13.7828 29.9199 14.4358 29.596 14.9951 29.3043C15.2347 29.7016 15.6074 30.0657 16.1136 30.3966C16.6194 30.7279 17.3122 30.893 18.191 30.893C19.0962 30.893 19.7623 30.6813 20.1885 30.2576C20.6142 29.8342 20.8278 29.4371 20.8278 29.0661C20.8278 28.8018 20.6811 28.5566 20.3882 28.3314C20.0948 28.1068 19.7623 27.928 19.3896 27.7952C18.8565 27.5836 18.417 27.4713 18.0713 27.4577C17.7248 27.4446 17.3253 27.372 16.8728 27.2392C15.4344 26.8955 14.3359 26.4388 13.5769 25.869C12.8178 25.3 12.2646 24.7241 11.9189 24.1414C11.5724 23.5594 11.3794 23.0034 11.3395 22.4734C11.2996 21.9441 11.2797 21.5203 11.2797 21.2026C11.2797 20.3554 11.4658 19.5482 11.8388 18.78C12.2115 18.0122 12.7242 17.3439 13.3771 16.7743C14.0294 16.2053 14.7884 15.7486 15.6544 15.4042C16.5195 15.0603 17.4451 14.8878 18.4308 14.8878C19.256 14.8878 20.042 15.007 20.7877 15.2453C21.5331 15.4835 22.2121 15.8149 22.8253 16.2381C23.4377 16.662 23.9638 17.1653 24.4033 17.7474C24.8427 18.33 25.1686 18.9784 25.382 19.6935L21.1075 21.123C20.9477 20.6464 20.6212 20.263 20.1286 19.9714C19.6354 19.6804 19.1098 19.5346 18.5505 19.5346C17.9913 19.5346 17.538 19.7201 17.1921 20.0906C16.8459 20.4616 16.6729 20.8321 16.6729 21.2026C16.6729 21.6531 16.839 22.0037 17.1725 22.255C17.5049 22.5068 17.8715 22.6856 18.271 22.791C18.5637 22.8445 18.8503 22.8905 19.1299 22.9302C19.4094 22.9698 19.6823 23.0162 19.9489 23.0691C20.8808 23.2813 21.6867 23.5197 22.3659 23.784Z" fill="white"/>
</svg>
