<svg width="24" height="24" viewBox="0 0 24 24" fill="none" xmlns="http://www.w3.org/2000/svg">
<path d="M12.3722 2.4C14.5625 2.4 16.3444 4.18193 16.3444 6.37219C16.3444 8.37154 14.8595 10.0303 12.9347 10.3044V19.8375C12.9347 20.1482 12.6829 20.4 12.3722 20.4C12.0616 20.4 11.8097 20.1482 11.8097 19.8375V10.3044C9.8849 10.0303 8.40005 8.37154 8.40005 6.37219C8.40005 4.18193 10.1819 2.4 12.3722 2.4ZM12.3722 9.21941C13.9422 9.21941 15.2194 7.94217 15.2194 6.37223C15.2194 4.80229 13.9422 3.525 12.3722 3.525C10.8023 3.525 9.52505 4.80225 9.52505 6.37219C9.52505 7.94213 10.8023 9.21941 12.3722 9.21941Z" fill="#0C2739"/>
</svg>
